<mxfile host="app.diagrams.net" modified="2023-06-16T14:12:38.790Z" agent="Mozilla/5.0 (Windows NT 10.0; Win64; x64) AppleWebKit/537.36 (KHTML, like Gecko) Chrome/114.0.0.0 Safari/537.36" etag="E7a9LGdiZe4Ru2URjnYa" version="21.1.5" type="github" pages="2">
  <diagram name="Top RTL" id="1S8q2XNDmcsXaV_S7nfN">
    <mxGraphModel dx="1609" dy="1437" grid="1" gridSize="10" guides="1" tooltips="1" connect="1" arrows="1" fold="1" page="1" pageScale="1" pageWidth="850" pageHeight="1100" math="0" shadow="0">
      <root>
        <mxCell id="0" />
        <mxCell id="1" parent="0" />
        <mxCell id="_48ezdWUlMI7r6iwSk9w-1" value="" style="group" parent="1" connectable="0" vertex="1">
          <mxGeometry x="570" y="100" width="150" height="210" as="geometry" />
        </mxCell>
        <mxCell id="_48ezdWUlMI7r6iwSk9w-3" value="FF" style="rounded=0;whiteSpace=wrap;html=1;" parent="_48ezdWUlMI7r6iwSk9w-1" vertex="1">
          <mxGeometry x="50" width="100" height="150" as="geometry" />
        </mxCell>
        <mxCell id="_48ezdWUlMI7r6iwSk9w-4" value="" style="triangle;whiteSpace=wrap;html=1;" parent="_48ezdWUlMI7r6iwSk9w-1" vertex="1">
          <mxGeometry x="50" y="100" width="20" height="30" as="geometry" />
        </mxCell>
        <mxCell id="_48ezdWUlMI7r6iwSk9w-5" value="" style="ellipse;whiteSpace=wrap;html=1;aspect=fixed;" parent="_48ezdWUlMI7r6iwSk9w-1" vertex="1">
          <mxGeometry x="90" y="150" width="20" height="20" as="geometry" />
        </mxCell>
        <mxCell id="_48ezdWUlMI7r6iwSk9w-6" value="" style="endArrow=none;html=1;rounded=0;exitX=0;exitY=0.5;exitDx=0;exitDy=0;" parent="_48ezdWUlMI7r6iwSk9w-1" source="_48ezdWUlMI7r6iwSk9w-4" edge="1">
          <mxGeometry width="50" height="50" relative="1" as="geometry">
            <mxPoint x="60" y="140" as="sourcePoint" />
            <mxPoint x="30" y="115" as="targetPoint" />
          </mxGeometry>
        </mxCell>
        <mxCell id="_48ezdWUlMI7r6iwSk9w-7" value="clk" style="text;html=1;strokeColor=none;fillColor=none;align=center;verticalAlign=middle;whiteSpace=wrap;rounded=0;" parent="_48ezdWUlMI7r6iwSk9w-1" vertex="1">
          <mxGeometry y="100" width="30" height="30" as="geometry" />
        </mxCell>
        <mxCell id="_48ezdWUlMI7r6iwSk9w-8" value="rst" style="text;html=1;strokeColor=none;fillColor=none;align=center;verticalAlign=middle;whiteSpace=wrap;rounded=0;" parent="_48ezdWUlMI7r6iwSk9w-1" vertex="1">
          <mxGeometry x="85" y="180" width="30" height="30" as="geometry" />
        </mxCell>
        <mxCell id="_48ezdWUlMI7r6iwSk9w-9" value="" style="endArrow=none;html=1;rounded=0;exitX=0.5;exitY=0;exitDx=0;exitDy=0;entryX=0.5;entryY=1;entryDx=0;entryDy=0;" parent="_48ezdWUlMI7r6iwSk9w-1" source="_48ezdWUlMI7r6iwSk9w-8" target="_48ezdWUlMI7r6iwSk9w-5" edge="1">
          <mxGeometry width="50" height="50" relative="1" as="geometry">
            <mxPoint x="60" y="140" as="sourcePoint" />
            <mxPoint x="110" y="90" as="targetPoint" />
          </mxGeometry>
        </mxCell>
        <mxCell id="_48ezdWUlMI7r6iwSk9w-10" value="next_count [n:0]" style="edgeStyle=orthogonalEdgeStyle;rounded=0;orthogonalLoop=1;jettySize=auto;html=1;entryX=0;entryY=0.25;entryDx=0;entryDy=0;" parent="1" source="_48ezdWUlMI7r6iwSk9w-11" target="_48ezdWUlMI7r6iwSk9w-14" edge="1">
          <mxGeometry relative="1" as="geometry">
            <Array as="points">
              <mxPoint x="250" y="508" />
            </Array>
          </mxGeometry>
        </mxCell>
        <mxCell id="_48ezdWUlMI7r6iwSk9w-11" value="clk divider" style="rounded=0;whiteSpace=wrap;html=1;" parent="1" vertex="1">
          <mxGeometry x="70" y="470" width="120" height="170" as="geometry" />
        </mxCell>
        <mxCell id="_48ezdWUlMI7r6iwSk9w-12" value="" style="group" parent="1" connectable="0" vertex="1">
          <mxGeometry x="260" y="470" width="150" height="210" as="geometry" />
        </mxCell>
        <mxCell id="_48ezdWUlMI7r6iwSk9w-13" value="beat_clk [n:0]" style="edgeStyle=orthogonalEdgeStyle;rounded=0;orthogonalLoop=1;jettySize=auto;html=1;exitX=1;exitY=0.25;exitDx=0;exitDy=0;" parent="_48ezdWUlMI7r6iwSk9w-12" source="_48ezdWUlMI7r6iwSk9w-14" edge="1">
          <mxGeometry relative="1" as="geometry">
            <mxPoint x="170" y="-110" as="targetPoint" />
          </mxGeometry>
        </mxCell>
        <mxCell id="7CatKWjEML8j9O0Hms15-1" style="edgeStyle=orthogonalEdgeStyle;rounded=0;hachureGap=4;orthogonalLoop=1;jettySize=auto;html=1;exitX=1;exitY=0.25;exitDx=0;exitDy=0;fontFamily=Architects Daughter;fontSource=https%3A%2F%2Ffonts.googleapis.com%2Fcss%3Ffamily%3DArchitects%2BDaughter;fontSize=16;" parent="_48ezdWUlMI7r6iwSk9w-12" source="_48ezdWUlMI7r6iwSk9w-14" edge="1">
          <mxGeometry relative="1" as="geometry">
            <mxPoint x="40" y="270" as="targetPoint" />
          </mxGeometry>
        </mxCell>
        <mxCell id="_48ezdWUlMI7r6iwSk9w-14" value="FF" style="rounded=0;whiteSpace=wrap;html=1;" parent="_48ezdWUlMI7r6iwSk9w-12" vertex="1">
          <mxGeometry x="50" width="100" height="150" as="geometry" />
        </mxCell>
        <mxCell id="_48ezdWUlMI7r6iwSk9w-15" value="" style="triangle;whiteSpace=wrap;html=1;" parent="_48ezdWUlMI7r6iwSk9w-12" vertex="1">
          <mxGeometry x="50" y="100" width="20" height="30" as="geometry" />
        </mxCell>
        <mxCell id="_48ezdWUlMI7r6iwSk9w-16" value="" style="ellipse;whiteSpace=wrap;html=1;aspect=fixed;" parent="_48ezdWUlMI7r6iwSk9w-12" vertex="1">
          <mxGeometry x="90" y="150" width="20" height="20" as="geometry" />
        </mxCell>
        <mxCell id="_48ezdWUlMI7r6iwSk9w-17" value="" style="endArrow=none;html=1;rounded=0;exitX=0;exitY=0.5;exitDx=0;exitDy=0;" parent="_48ezdWUlMI7r6iwSk9w-12" source="_48ezdWUlMI7r6iwSk9w-15" edge="1">
          <mxGeometry width="50" height="50" relative="1" as="geometry">
            <mxPoint x="60" y="140" as="sourcePoint" />
            <mxPoint x="30" y="115" as="targetPoint" />
          </mxGeometry>
        </mxCell>
        <mxCell id="_48ezdWUlMI7r6iwSk9w-18" value="clk" style="text;html=1;strokeColor=none;fillColor=none;align=center;verticalAlign=middle;whiteSpace=wrap;rounded=0;" parent="_48ezdWUlMI7r6iwSk9w-12" vertex="1">
          <mxGeometry y="100" width="30" height="30" as="geometry" />
        </mxCell>
        <mxCell id="_48ezdWUlMI7r6iwSk9w-19" value="rst" style="text;html=1;strokeColor=none;fillColor=none;align=center;verticalAlign=middle;whiteSpace=wrap;rounded=0;" parent="_48ezdWUlMI7r6iwSk9w-12" vertex="1">
          <mxGeometry x="85" y="180" width="30" height="30" as="geometry" />
        </mxCell>
        <mxCell id="_48ezdWUlMI7r6iwSk9w-20" value="" style="endArrow=none;html=1;rounded=0;exitX=0.5;exitY=0;exitDx=0;exitDy=0;entryX=0.5;entryY=1;entryDx=0;entryDy=0;" parent="_48ezdWUlMI7r6iwSk9w-12" source="_48ezdWUlMI7r6iwSk9w-19" target="_48ezdWUlMI7r6iwSk9w-16" edge="1">
          <mxGeometry width="50" height="50" relative="1" as="geometry">
            <mxPoint x="60" y="140" as="sourcePoint" />
            <mxPoint x="110" y="90" as="targetPoint" />
          </mxGeometry>
        </mxCell>
        <mxCell id="_48ezdWUlMI7r6iwSk9w-21" style="edgeStyle=orthogonalEdgeStyle;rounded=0;orthogonalLoop=1;jettySize=auto;html=1;entryX=0;entryY=0.25;entryDx=0;entryDy=0;" parent="1" source="_48ezdWUlMI7r6iwSk9w-22" target="7CatKWjEML8j9O0Hms15-13" edge="1">
          <mxGeometry relative="1" as="geometry" />
        </mxCell>
        <mxCell id="_48ezdWUlMI7r6iwSk9w-22" value="speed divider [m:0]" style="text;html=1;strokeColor=default;fillColor=none;align=center;verticalAlign=middle;whiteSpace=wrap;rounded=1;" parent="1" vertex="1">
          <mxGeometry x="100" y="770" width="80" height="30" as="geometry" />
        </mxCell>
        <mxCell id="_48ezdWUlMI7r6iwSk9w-23" style="edgeStyle=orthogonalEdgeStyle;rounded=0;orthogonalLoop=1;jettySize=auto;html=1;exitX=1;exitY=0.25;exitDx=0;exitDy=0;entryX=0.5;entryY=0;entryDx=0;entryDy=0;" parent="1" source="_48ezdWUlMI7r6iwSk9w-14" target="_48ezdWUlMI7r6iwSk9w-11" edge="1">
          <mxGeometry relative="1" as="geometry">
            <Array as="points">
              <mxPoint x="430" y="508" />
              <mxPoint x="430" y="450" />
              <mxPoint x="130" y="450" />
            </Array>
          </mxGeometry>
        </mxCell>
        <mxCell id="_48ezdWUlMI7r6iwSk9w-24" value="shift2 [31:0]" style="edgeStyle=orthogonalEdgeStyle;rounded=0;orthogonalLoop=1;jettySize=auto;html=1;exitX=0.75;exitY=1;exitDx=0;exitDy=0;entryX=0;entryY=0.25;entryDx=0;entryDy=0;" parent="1" source="_48ezdWUlMI7r6iwSk9w-26" target="_48ezdWUlMI7r6iwSk9w-29" edge="1">
          <mxGeometry relative="1" as="geometry" />
        </mxCell>
        <mxCell id="_48ezdWUlMI7r6iwSk9w-25" value="shift1 [31:0]" style="edgeStyle=orthogonalEdgeStyle;rounded=0;orthogonalLoop=1;jettySize=auto;html=1;exitX=1;exitY=0.25;exitDx=0;exitDy=0;entryX=0;entryY=0.25;entryDx=0;entryDy=0;" parent="1" source="_48ezdWUlMI7r6iwSk9w-26" target="_48ezdWUlMI7r6iwSk9w-3" edge="1">
          <mxGeometry relative="1" as="geometry" />
        </mxCell>
        <mxCell id="_48ezdWUlMI7r6iwSk9w-26" value="&lt;div align=&quot;left&quot;&gt;if (slow_clk)&lt;/div&gt;&lt;div align=&quot;left&quot;&gt;&amp;nbsp; shift1 = note1 &amp;lt;&amp;lt; 1;&lt;/div&gt;&lt;div align=&quot;left&quot;&gt;&amp;nbsp; shift2 = note2 &amp;lt;&amp;lt; 1;&lt;/div&gt;&lt;div align=&quot;left&quot;&gt;else&lt;/div&gt;&lt;div align=&quot;left&quot;&gt;&amp;nbsp; shift1 = note1;&lt;/div&gt;&lt;div align=&quot;left&quot;&gt;&amp;nbsp; shift2 = note2;&lt;br&gt;&lt;/div&gt;&lt;div align=&quot;left&quot;&gt;&lt;br&gt;&lt;/div&gt;&lt;div align=&quot;left&quot;&gt;&lt;br&gt;&lt;/div&gt;" style="rounded=0;whiteSpace=wrap;html=1;align=left;" parent="1" vertex="1">
          <mxGeometry x="370" y="210" width="120" height="150" as="geometry" />
        </mxCell>
        <mxCell id="_48ezdWUlMI7r6iwSk9w-27" value="" style="group" parent="1" connectable="0" vertex="1">
          <mxGeometry x="560" y="380" width="150" height="210" as="geometry" />
        </mxCell>
        <mxCell id="_48ezdWUlMI7r6iwSk9w-29" value="FF" style="rounded=0;whiteSpace=wrap;html=1;" parent="_48ezdWUlMI7r6iwSk9w-27" vertex="1">
          <mxGeometry x="50" width="100" height="150" as="geometry" />
        </mxCell>
        <mxCell id="_48ezdWUlMI7r6iwSk9w-30" value="" style="triangle;whiteSpace=wrap;html=1;" parent="_48ezdWUlMI7r6iwSk9w-27" vertex="1">
          <mxGeometry x="50" y="100" width="20" height="30" as="geometry" />
        </mxCell>
        <mxCell id="_48ezdWUlMI7r6iwSk9w-32" value="" style="endArrow=none;html=1;rounded=0;exitX=0;exitY=0.5;exitDx=0;exitDy=0;" parent="_48ezdWUlMI7r6iwSk9w-27" source="_48ezdWUlMI7r6iwSk9w-30" edge="1">
          <mxGeometry width="50" height="50" relative="1" as="geometry">
            <mxPoint x="60" y="140" as="sourcePoint" />
            <mxPoint x="30" y="115" as="targetPoint" />
          </mxGeometry>
        </mxCell>
        <mxCell id="_48ezdWUlMI7r6iwSk9w-33" value="clk" style="text;html=1;strokeColor=none;fillColor=none;align=center;verticalAlign=middle;whiteSpace=wrap;rounded=0;" parent="_48ezdWUlMI7r6iwSk9w-27" vertex="1">
          <mxGeometry y="100" width="30" height="30" as="geometry" />
        </mxCell>
        <mxCell id="_48ezdWUlMI7r6iwSk9w-34" value="rst" style="text;html=1;strokeColor=none;fillColor=none;align=center;verticalAlign=middle;whiteSpace=wrap;rounded=0;" parent="_48ezdWUlMI7r6iwSk9w-27" vertex="1">
          <mxGeometry x="85" y="180" width="30" height="30" as="geometry" />
        </mxCell>
        <mxCell id="_48ezdWUlMI7r6iwSk9w-31" value="" style="ellipse;whiteSpace=wrap;html=1;aspect=fixed;" parent="_48ezdWUlMI7r6iwSk9w-27" vertex="1">
          <mxGeometry x="90" y="150" width="20" height="20" as="geometry" />
        </mxCell>
        <mxCell id="_48ezdWUlMI7r6iwSk9w-35" value="" style="endArrow=none;html=1;rounded=0;exitX=0.5;exitY=0;exitDx=0;exitDy=0;entryX=0.5;entryY=1;entryDx=0;entryDy=0;" parent="_48ezdWUlMI7r6iwSk9w-27" target="_48ezdWUlMI7r6iwSk9w-31" edge="1">
          <mxGeometry width="50" height="50" relative="1" as="geometry">
            <mxPoint x="100" y="180" as="sourcePoint" />
            <mxPoint x="110" y="90" as="targetPoint" />
          </mxGeometry>
        </mxCell>
        <mxCell id="_48ezdWUlMI7r6iwSk9w-36" value="note2 [31:0]" style="edgeStyle=orthogonalEdgeStyle;rounded=0;orthogonalLoop=1;jettySize=auto;html=1;exitX=1;exitY=0.25;exitDx=0;exitDy=0;entryX=1;entryY=0.75;entryDx=0;entryDy=0;" parent="1" source="_48ezdWUlMI7r6iwSk9w-29" target="_48ezdWUlMI7r6iwSk9w-26" edge="1">
          <mxGeometry relative="1" as="geometry">
            <Array as="points">
              <mxPoint x="730" y="418" />
              <mxPoint x="730" y="322" />
            </Array>
          </mxGeometry>
        </mxCell>
        <mxCell id="7CatKWjEML8j9O0Hms15-3" value="" style="group" parent="1" connectable="0" vertex="1">
          <mxGeometry x="390" y="740" width="150" height="210" as="geometry" />
        </mxCell>
        <mxCell id="7CatKWjEML8j9O0Hms15-6" value="FF" style="rounded=0;whiteSpace=wrap;html=1;" parent="7CatKWjEML8j9O0Hms15-3" vertex="1">
          <mxGeometry x="50" width="100" height="150" as="geometry" />
        </mxCell>
        <mxCell id="7CatKWjEML8j9O0Hms15-7" value="" style="triangle;whiteSpace=wrap;html=1;" parent="7CatKWjEML8j9O0Hms15-3" vertex="1">
          <mxGeometry x="50" y="100" width="20" height="30" as="geometry" />
        </mxCell>
        <mxCell id="7CatKWjEML8j9O0Hms15-8" value="" style="ellipse;whiteSpace=wrap;html=1;aspect=fixed;" parent="7CatKWjEML8j9O0Hms15-3" vertex="1">
          <mxGeometry x="90" y="150" width="20" height="20" as="geometry" />
        </mxCell>
        <mxCell id="7CatKWjEML8j9O0Hms15-9" value="" style="endArrow=none;html=1;rounded=0;exitX=0;exitY=0.5;exitDx=0;exitDy=0;" parent="7CatKWjEML8j9O0Hms15-3" source="7CatKWjEML8j9O0Hms15-7" edge="1">
          <mxGeometry width="50" height="50" relative="1" as="geometry">
            <mxPoint x="60" y="140" as="sourcePoint" />
            <mxPoint x="30" y="115" as="targetPoint" />
          </mxGeometry>
        </mxCell>
        <mxCell id="7CatKWjEML8j9O0Hms15-10" value="clk" style="text;html=1;strokeColor=none;fillColor=none;align=center;verticalAlign=middle;whiteSpace=wrap;rounded=0;" parent="7CatKWjEML8j9O0Hms15-3" vertex="1">
          <mxGeometry y="100" width="30" height="30" as="geometry" />
        </mxCell>
        <mxCell id="7CatKWjEML8j9O0Hms15-11" value="rst" style="text;html=1;strokeColor=none;fillColor=none;align=center;verticalAlign=middle;whiteSpace=wrap;rounded=0;" parent="7CatKWjEML8j9O0Hms15-3" vertex="1">
          <mxGeometry x="85" y="180" width="30" height="30" as="geometry" />
        </mxCell>
        <mxCell id="7CatKWjEML8j9O0Hms15-12" value="" style="endArrow=none;html=1;rounded=0;exitX=0.5;exitY=0;exitDx=0;exitDy=0;entryX=0.5;entryY=1;entryDx=0;entryDy=0;" parent="7CatKWjEML8j9O0Hms15-3" source="7CatKWjEML8j9O0Hms15-11" target="7CatKWjEML8j9O0Hms15-8" edge="1">
          <mxGeometry width="50" height="50" relative="1" as="geometry">
            <mxPoint x="60" y="140" as="sourcePoint" />
            <mxPoint x="110" y="90" as="targetPoint" />
          </mxGeometry>
        </mxCell>
        <mxCell id="7CatKWjEML8j9O0Hms15-14" style="edgeStyle=orthogonalEdgeStyle;rounded=0;hachureGap=4;orthogonalLoop=1;jettySize=auto;html=1;exitX=1;exitY=0.25;exitDx=0;exitDy=0;entryX=0;entryY=0.284;entryDx=0;entryDy=0;entryPerimeter=0;fontFamily=Architects Daughter;fontSource=https%3A%2F%2Ffonts.googleapis.com%2Fcss%3Ffamily%3DArchitects%2BDaughter;fontSize=16;" parent="1" source="7CatKWjEML8j9O0Hms15-13" target="7CatKWjEML8j9O0Hms15-6" edge="1">
          <mxGeometry relative="1" as="geometry" />
        </mxCell>
        <mxCell id="7CatKWjEML8j9O0Hms15-13" value="clk divider" style="rounded=0;whiteSpace=wrap;html=1;" parent="1" vertex="1">
          <mxGeometry x="240" y="740" width="120" height="170" as="geometry" />
        </mxCell>
        <mxCell id="7CatKWjEML8j9O0Hms15-19" style="edgeStyle=orthogonalEdgeStyle;rounded=0;hachureGap=4;orthogonalLoop=1;jettySize=auto;html=1;entryX=0;entryY=0.25;entryDx=0;entryDy=0;fontFamily=Architects Daughter;fontSource=https%3A%2F%2Ffonts.googleapis.com%2Fcss%3Ffamily%3DArchitects%2BDaughter;fontSize=16;" parent="1" source="7CatKWjEML8j9O0Hms15-18" target="_48ezdWUlMI7r6iwSk9w-11" edge="1">
          <mxGeometry relative="1" as="geometry" />
        </mxCell>
        <mxCell id="7CatKWjEML8j9O0Hms15-18" value="10" style="text;html=1;strokeColor=default;fillColor=none;align=center;verticalAlign=middle;whiteSpace=wrap;rounded=1;" parent="1" vertex="1">
          <mxGeometry x="-80" y="500" width="80" height="30" as="geometry" />
        </mxCell>
        <mxCell id="7CatKWjEML8j9O0Hms15-22" style="edgeStyle=orthogonalEdgeStyle;rounded=0;orthogonalLoop=1;jettySize=auto;html=1;exitX=1;exitY=0.25;exitDx=0;exitDy=0;entryX=0;entryY=0.75;entryDx=0;entryDy=0;" parent="1" source="7CatKWjEML8j9O0Hms15-6" target="_48ezdWUlMI7r6iwSk9w-11" edge="1">
          <mxGeometry relative="1" as="geometry">
            <Array as="points">
              <mxPoint x="560" y="778" />
              <mxPoint x="560" y="970" />
              <mxPoint x="50" y="970" />
              <mxPoint x="50" y="598" />
            </Array>
          </mxGeometry>
        </mxCell>
        <mxCell id="7CatKWjEML8j9O0Hms15-23" value="" style="group" parent="1" connectable="0" vertex="1">
          <mxGeometry x="590" y="1020" width="150" height="210" as="geometry" />
        </mxCell>
        <mxCell id="7CatKWjEML8j9O0Hms15-24" style="edgeStyle=orthogonalEdgeStyle;rounded=0;orthogonalLoop=1;jettySize=auto;html=1;exitX=1;exitY=0.25;exitDx=0;exitDy=0;" parent="7CatKWjEML8j9O0Hms15-23" source="7CatKWjEML8j9O0Hms15-25" edge="1">
          <mxGeometry relative="1" as="geometry">
            <mxPoint x="210" y="37.714285714285666" as="targetPoint" />
          </mxGeometry>
        </mxCell>
        <mxCell id="7CatKWjEML8j9O0Hms15-25" value="FF" style="rounded=0;whiteSpace=wrap;html=1;" parent="7CatKWjEML8j9O0Hms15-23" vertex="1">
          <mxGeometry x="50" width="100" height="150" as="geometry" />
        </mxCell>
        <mxCell id="7CatKWjEML8j9O0Hms15-26" value="" style="triangle;whiteSpace=wrap;html=1;" parent="7CatKWjEML8j9O0Hms15-23" vertex="1">
          <mxGeometry x="50" y="100" width="20" height="30" as="geometry" />
        </mxCell>
        <mxCell id="7CatKWjEML8j9O0Hms15-27" value="" style="ellipse;whiteSpace=wrap;html=1;aspect=fixed;" parent="7CatKWjEML8j9O0Hms15-23" vertex="1">
          <mxGeometry x="90" y="150" width="20" height="20" as="geometry" />
        </mxCell>
        <mxCell id="7CatKWjEML8j9O0Hms15-28" value="" style="endArrow=none;html=1;rounded=0;exitX=0;exitY=0.5;exitDx=0;exitDy=0;" parent="7CatKWjEML8j9O0Hms15-23" source="7CatKWjEML8j9O0Hms15-26" edge="1">
          <mxGeometry width="50" height="50" relative="1" as="geometry">
            <mxPoint x="60" y="140" as="sourcePoint" />
            <mxPoint x="30" y="115" as="targetPoint" />
          </mxGeometry>
        </mxCell>
        <mxCell id="7CatKWjEML8j9O0Hms15-29" value="clk" style="text;html=1;strokeColor=none;fillColor=none;align=center;verticalAlign=middle;whiteSpace=wrap;rounded=0;" parent="7CatKWjEML8j9O0Hms15-23" vertex="1">
          <mxGeometry y="100" width="30" height="30" as="geometry" />
        </mxCell>
        <mxCell id="7CatKWjEML8j9O0Hms15-30" value="rst" style="text;html=1;strokeColor=none;fillColor=none;align=center;verticalAlign=middle;whiteSpace=wrap;rounded=0;" parent="7CatKWjEML8j9O0Hms15-23" vertex="1">
          <mxGeometry x="85" y="180" width="30" height="30" as="geometry" />
        </mxCell>
        <mxCell id="7CatKWjEML8j9O0Hms15-31" value="" style="endArrow=none;html=1;rounded=0;exitX=0.5;exitY=0;exitDx=0;exitDy=0;entryX=0.5;entryY=1;entryDx=0;entryDy=0;" parent="7CatKWjEML8j9O0Hms15-23" source="7CatKWjEML8j9O0Hms15-30" target="7CatKWjEML8j9O0Hms15-27" edge="1">
          <mxGeometry width="50" height="50" relative="1" as="geometry">
            <mxPoint x="60" y="140" as="sourcePoint" />
            <mxPoint x="110" y="90" as="targetPoint" />
          </mxGeometry>
        </mxCell>
        <mxCell id="7CatKWjEML8j9O0Hms15-32" value="" style="group" parent="1" connectable="0" vertex="1">
          <mxGeometry x="750" y="1020" width="150" height="210" as="geometry" />
        </mxCell>
        <mxCell id="7CatKWjEML8j9O0Hms15-33" style="edgeStyle=orthogonalEdgeStyle;rounded=0;orthogonalLoop=1;jettySize=auto;html=1;exitX=1;exitY=0.25;exitDx=0;exitDy=0;" parent="7CatKWjEML8j9O0Hms15-32" source="7CatKWjEML8j9O0Hms15-34" edge="1">
          <mxGeometry relative="1" as="geometry">
            <mxPoint x="210" y="37.714285714285666" as="targetPoint" />
          </mxGeometry>
        </mxCell>
        <mxCell id="7CatKWjEML8j9O0Hms15-34" value="FF" style="rounded=0;whiteSpace=wrap;html=1;" parent="7CatKWjEML8j9O0Hms15-32" vertex="1">
          <mxGeometry x="50" width="100" height="150" as="geometry" />
        </mxCell>
        <mxCell id="7CatKWjEML8j9O0Hms15-35" value="" style="triangle;whiteSpace=wrap;html=1;" parent="7CatKWjEML8j9O0Hms15-32" vertex="1">
          <mxGeometry x="50" y="100" width="20" height="30" as="geometry" />
        </mxCell>
        <mxCell id="7CatKWjEML8j9O0Hms15-36" value="" style="ellipse;whiteSpace=wrap;html=1;aspect=fixed;" parent="7CatKWjEML8j9O0Hms15-32" vertex="1">
          <mxGeometry x="90" y="150" width="20" height="20" as="geometry" />
        </mxCell>
        <mxCell id="7CatKWjEML8j9O0Hms15-37" value="" style="endArrow=none;html=1;rounded=0;exitX=0;exitY=0.5;exitDx=0;exitDy=0;" parent="7CatKWjEML8j9O0Hms15-32" source="7CatKWjEML8j9O0Hms15-35" edge="1">
          <mxGeometry width="50" height="50" relative="1" as="geometry">
            <mxPoint x="60" y="140" as="sourcePoint" />
            <mxPoint x="30" y="115" as="targetPoint" />
          </mxGeometry>
        </mxCell>
        <mxCell id="7CatKWjEML8j9O0Hms15-38" value="clk" style="text;html=1;strokeColor=none;fillColor=none;align=center;verticalAlign=middle;whiteSpace=wrap;rounded=0;" parent="7CatKWjEML8j9O0Hms15-32" vertex="1">
          <mxGeometry y="100" width="30" height="30" as="geometry" />
        </mxCell>
        <mxCell id="7CatKWjEML8j9O0Hms15-39" value="rst" style="text;html=1;strokeColor=none;fillColor=none;align=center;verticalAlign=middle;whiteSpace=wrap;rounded=0;" parent="7CatKWjEML8j9O0Hms15-32" vertex="1">
          <mxGeometry x="85" y="180" width="30" height="30" as="geometry" />
        </mxCell>
        <mxCell id="7CatKWjEML8j9O0Hms15-40" value="" style="endArrow=none;html=1;rounded=0;exitX=0.5;exitY=0;exitDx=0;exitDy=0;entryX=0.5;entryY=1;entryDx=0;entryDy=0;" parent="7CatKWjEML8j9O0Hms15-32" source="7CatKWjEML8j9O0Hms15-39" target="7CatKWjEML8j9O0Hms15-36" edge="1">
          <mxGeometry width="50" height="50" relative="1" as="geometry">
            <mxPoint x="60" y="140" as="sourcePoint" />
            <mxPoint x="110" y="90" as="targetPoint" />
          </mxGeometry>
        </mxCell>
        <mxCell id="7CatKWjEML8j9O0Hms15-41" value="" style="group" parent="1" connectable="0" vertex="1">
          <mxGeometry x="910" y="1020" width="150" height="210" as="geometry" />
        </mxCell>
        <mxCell id="7CatKWjEML8j9O0Hms15-42" value="pushed_1" style="edgeStyle=orthogonalEdgeStyle;rounded=0;orthogonalLoop=1;jettySize=auto;html=1;exitX=1;exitY=0.25;exitDx=0;exitDy=0;" parent="7CatKWjEML8j9O0Hms15-41" source="7CatKWjEML8j9O0Hms15-43" edge="1">
          <mxGeometry relative="1" as="geometry">
            <mxPoint x="210" y="37.714285714285666" as="targetPoint" />
          </mxGeometry>
        </mxCell>
        <mxCell id="7CatKWjEML8j9O0Hms15-43" value="FF" style="rounded=0;whiteSpace=wrap;html=1;" parent="7CatKWjEML8j9O0Hms15-41" vertex="1">
          <mxGeometry x="50" width="100" height="150" as="geometry" />
        </mxCell>
        <mxCell id="7CatKWjEML8j9O0Hms15-44" value="" style="triangle;whiteSpace=wrap;html=1;" parent="7CatKWjEML8j9O0Hms15-41" vertex="1">
          <mxGeometry x="50" y="100" width="20" height="30" as="geometry" />
        </mxCell>
        <mxCell id="7CatKWjEML8j9O0Hms15-45" value="" style="ellipse;whiteSpace=wrap;html=1;aspect=fixed;" parent="7CatKWjEML8j9O0Hms15-41" vertex="1">
          <mxGeometry x="90" y="150" width="20" height="20" as="geometry" />
        </mxCell>
        <mxCell id="7CatKWjEML8j9O0Hms15-46" value="" style="endArrow=none;html=1;rounded=0;exitX=0;exitY=0.5;exitDx=0;exitDy=0;" parent="7CatKWjEML8j9O0Hms15-41" source="7CatKWjEML8j9O0Hms15-44" edge="1">
          <mxGeometry width="50" height="50" relative="1" as="geometry">
            <mxPoint x="60" y="140" as="sourcePoint" />
            <mxPoint x="30" y="115" as="targetPoint" />
          </mxGeometry>
        </mxCell>
        <mxCell id="7CatKWjEML8j9O0Hms15-47" value="clk" style="text;html=1;strokeColor=none;fillColor=none;align=center;verticalAlign=middle;whiteSpace=wrap;rounded=0;" parent="7CatKWjEML8j9O0Hms15-41" vertex="1">
          <mxGeometry y="100" width="30" height="30" as="geometry" />
        </mxCell>
        <mxCell id="7CatKWjEML8j9O0Hms15-48" value="rst" style="text;html=1;strokeColor=none;fillColor=none;align=center;verticalAlign=middle;whiteSpace=wrap;rounded=0;" parent="7CatKWjEML8j9O0Hms15-41" vertex="1">
          <mxGeometry x="85" y="180" width="30" height="30" as="geometry" />
        </mxCell>
        <mxCell id="7CatKWjEML8j9O0Hms15-49" value="" style="endArrow=none;html=1;rounded=0;exitX=0.5;exitY=0;exitDx=0;exitDy=0;entryX=0.5;entryY=1;entryDx=0;entryDy=0;" parent="7CatKWjEML8j9O0Hms15-41" source="7CatKWjEML8j9O0Hms15-48" target="7CatKWjEML8j9O0Hms15-45" edge="1">
          <mxGeometry width="50" height="50" relative="1" as="geometry">
            <mxPoint x="60" y="140" as="sourcePoint" />
            <mxPoint x="110" y="90" as="targetPoint" />
          </mxGeometry>
        </mxCell>
        <mxCell id="7CatKWjEML8j9O0Hms15-60" style="edgeStyle=orthogonalEdgeStyle;rounded=0;orthogonalLoop=1;jettySize=auto;html=1;" parent="1" source="7CatKWjEML8j9O0Hms15-59" edge="1">
          <mxGeometry relative="1" as="geometry">
            <mxPoint x="640" y="1055" as="targetPoint" />
          </mxGeometry>
        </mxCell>
        <mxCell id="7CatKWjEML8j9O0Hms15-59" value="button_1" style="text;html=1;strokeColor=default;fillColor=none;align=center;verticalAlign=middle;whiteSpace=wrap;rounded=1;" parent="1" vertex="1">
          <mxGeometry x="520" y="1040" width="80" height="30" as="geometry" />
        </mxCell>
        <mxCell id="7CatKWjEML8j9O0Hms15-61" value="" style="group" parent="1" connectable="0" vertex="1">
          <mxGeometry x="600" y="1240" width="150" height="210" as="geometry" />
        </mxCell>
        <mxCell id="7CatKWjEML8j9O0Hms15-62" style="edgeStyle=orthogonalEdgeStyle;rounded=0;orthogonalLoop=1;jettySize=auto;html=1;exitX=1;exitY=0.25;exitDx=0;exitDy=0;" parent="7CatKWjEML8j9O0Hms15-61" source="7CatKWjEML8j9O0Hms15-63" edge="1">
          <mxGeometry relative="1" as="geometry">
            <mxPoint x="200" y="37.714285714285666" as="targetPoint" />
          </mxGeometry>
        </mxCell>
        <mxCell id="7CatKWjEML8j9O0Hms15-63" value="FF" style="rounded=0;whiteSpace=wrap;html=1;" parent="7CatKWjEML8j9O0Hms15-61" vertex="1">
          <mxGeometry x="40" width="100" height="150" as="geometry" />
        </mxCell>
        <mxCell id="7CatKWjEML8j9O0Hms15-64" value="" style="triangle;whiteSpace=wrap;html=1;" parent="7CatKWjEML8j9O0Hms15-61" vertex="1">
          <mxGeometry x="40" y="100" width="20" height="30" as="geometry" />
        </mxCell>
        <mxCell id="7CatKWjEML8j9O0Hms15-65" value="" style="ellipse;whiteSpace=wrap;html=1;aspect=fixed;" parent="7CatKWjEML8j9O0Hms15-61" vertex="1">
          <mxGeometry x="80" y="150" width="20" height="20" as="geometry" />
        </mxCell>
        <mxCell id="7CatKWjEML8j9O0Hms15-66" value="" style="endArrow=none;html=1;rounded=0;exitX=0;exitY=0.5;exitDx=0;exitDy=0;" parent="7CatKWjEML8j9O0Hms15-61" source="7CatKWjEML8j9O0Hms15-64" edge="1">
          <mxGeometry width="50" height="50" relative="1" as="geometry">
            <mxPoint x="50" y="140" as="sourcePoint" />
            <mxPoint x="20" y="115" as="targetPoint" />
          </mxGeometry>
        </mxCell>
        <mxCell id="7CatKWjEML8j9O0Hms15-67" value="clk" style="text;html=1;strokeColor=none;fillColor=none;align=center;verticalAlign=middle;whiteSpace=wrap;rounded=0;" parent="7CatKWjEML8j9O0Hms15-61" vertex="1">
          <mxGeometry x="-10" y="100" width="30" height="30" as="geometry" />
        </mxCell>
        <mxCell id="7CatKWjEML8j9O0Hms15-68" value="rst" style="text;html=1;strokeColor=none;fillColor=none;align=center;verticalAlign=middle;whiteSpace=wrap;rounded=0;" parent="7CatKWjEML8j9O0Hms15-61" vertex="1">
          <mxGeometry x="75" y="180" width="30" height="30" as="geometry" />
        </mxCell>
        <mxCell id="7CatKWjEML8j9O0Hms15-69" value="" style="endArrow=none;html=1;rounded=0;exitX=0.5;exitY=0;exitDx=0;exitDy=0;entryX=0.5;entryY=1;entryDx=0;entryDy=0;" parent="7CatKWjEML8j9O0Hms15-61" target="7CatKWjEML8j9O0Hms15-65" edge="1">
          <mxGeometry width="50" height="50" relative="1" as="geometry">
            <mxPoint x="90" y="180" as="sourcePoint" />
            <mxPoint x="100" y="90" as="targetPoint" />
          </mxGeometry>
        </mxCell>
        <mxCell id="7CatKWjEML8j9O0Hms15-70" value="" style="group" parent="1" connectable="0" vertex="1">
          <mxGeometry x="760" y="1240" width="150" height="210" as="geometry" />
        </mxCell>
        <mxCell id="7CatKWjEML8j9O0Hms15-71" style="edgeStyle=orthogonalEdgeStyle;rounded=0;orthogonalLoop=1;jettySize=auto;html=1;exitX=1;exitY=0.25;exitDx=0;exitDy=0;" parent="7CatKWjEML8j9O0Hms15-70" source="7CatKWjEML8j9O0Hms15-72" edge="1">
          <mxGeometry relative="1" as="geometry">
            <mxPoint x="200" y="37.714285714285666" as="targetPoint" />
          </mxGeometry>
        </mxCell>
        <mxCell id="7CatKWjEML8j9O0Hms15-72" value="FF" style="rounded=0;whiteSpace=wrap;html=1;" parent="7CatKWjEML8j9O0Hms15-70" vertex="1">
          <mxGeometry x="40" width="100" height="150" as="geometry" />
        </mxCell>
        <mxCell id="7CatKWjEML8j9O0Hms15-73" value="" style="triangle;whiteSpace=wrap;html=1;" parent="7CatKWjEML8j9O0Hms15-70" vertex="1">
          <mxGeometry x="40" y="100" width="20" height="30" as="geometry" />
        </mxCell>
        <mxCell id="7CatKWjEML8j9O0Hms15-74" value="" style="ellipse;whiteSpace=wrap;html=1;aspect=fixed;" parent="7CatKWjEML8j9O0Hms15-70" vertex="1">
          <mxGeometry x="80" y="150" width="20" height="20" as="geometry" />
        </mxCell>
        <mxCell id="7CatKWjEML8j9O0Hms15-75" value="" style="endArrow=none;html=1;rounded=0;exitX=0;exitY=0.5;exitDx=0;exitDy=0;" parent="7CatKWjEML8j9O0Hms15-70" source="7CatKWjEML8j9O0Hms15-73" edge="1">
          <mxGeometry width="50" height="50" relative="1" as="geometry">
            <mxPoint x="50" y="140" as="sourcePoint" />
            <mxPoint x="20" y="115" as="targetPoint" />
          </mxGeometry>
        </mxCell>
        <mxCell id="7CatKWjEML8j9O0Hms15-76" value="clk" style="text;html=1;strokeColor=none;fillColor=none;align=center;verticalAlign=middle;whiteSpace=wrap;rounded=0;" parent="7CatKWjEML8j9O0Hms15-70" vertex="1">
          <mxGeometry x="-10" y="100" width="30" height="30" as="geometry" />
        </mxCell>
        <mxCell id="7CatKWjEML8j9O0Hms15-77" value="rst" style="text;html=1;strokeColor=none;fillColor=none;align=center;verticalAlign=middle;whiteSpace=wrap;rounded=0;" parent="7CatKWjEML8j9O0Hms15-70" vertex="1">
          <mxGeometry x="75" y="180" width="30" height="30" as="geometry" />
        </mxCell>
        <mxCell id="7CatKWjEML8j9O0Hms15-78" value="" style="endArrow=none;html=1;rounded=0;exitX=0.5;exitY=0;exitDx=0;exitDy=0;entryX=0.5;entryY=1;entryDx=0;entryDy=0;" parent="7CatKWjEML8j9O0Hms15-70" target="7CatKWjEML8j9O0Hms15-74" edge="1">
          <mxGeometry width="50" height="50" relative="1" as="geometry">
            <mxPoint x="90" y="180" as="sourcePoint" />
            <mxPoint x="100" y="90" as="targetPoint" />
          </mxGeometry>
        </mxCell>
        <mxCell id="7CatKWjEML8j9O0Hms15-79" value="" style="group" parent="1" connectable="0" vertex="1">
          <mxGeometry x="920" y="1240" width="150" height="210" as="geometry" />
        </mxCell>
        <mxCell id="7CatKWjEML8j9O0Hms15-80" value="pushed_2" style="edgeStyle=orthogonalEdgeStyle;rounded=0;orthogonalLoop=1;jettySize=auto;html=1;exitX=1;exitY=0.25;exitDx=0;exitDy=0;" parent="7CatKWjEML8j9O0Hms15-79" source="7CatKWjEML8j9O0Hms15-81" edge="1">
          <mxGeometry relative="1" as="geometry">
            <mxPoint x="200" y="37.714285714285666" as="targetPoint" />
          </mxGeometry>
        </mxCell>
        <mxCell id="7CatKWjEML8j9O0Hms15-81" value="FF" style="rounded=0;whiteSpace=wrap;html=1;" parent="7CatKWjEML8j9O0Hms15-79" vertex="1">
          <mxGeometry x="40" width="100" height="150" as="geometry" />
        </mxCell>
        <mxCell id="7CatKWjEML8j9O0Hms15-82" value="" style="triangle;whiteSpace=wrap;html=1;" parent="7CatKWjEML8j9O0Hms15-79" vertex="1">
          <mxGeometry x="40" y="100" width="20" height="30" as="geometry" />
        </mxCell>
        <mxCell id="7CatKWjEML8j9O0Hms15-83" value="" style="ellipse;whiteSpace=wrap;html=1;aspect=fixed;" parent="7CatKWjEML8j9O0Hms15-79" vertex="1">
          <mxGeometry x="80" y="150" width="20" height="20" as="geometry" />
        </mxCell>
        <mxCell id="7CatKWjEML8j9O0Hms15-84" value="" style="endArrow=none;html=1;rounded=0;exitX=0;exitY=0.5;exitDx=0;exitDy=0;" parent="7CatKWjEML8j9O0Hms15-79" source="7CatKWjEML8j9O0Hms15-82" edge="1">
          <mxGeometry width="50" height="50" relative="1" as="geometry">
            <mxPoint x="50" y="140" as="sourcePoint" />
            <mxPoint x="20" y="115" as="targetPoint" />
          </mxGeometry>
        </mxCell>
        <mxCell id="7CatKWjEML8j9O0Hms15-85" value="clk" style="text;html=1;strokeColor=none;fillColor=none;align=center;verticalAlign=middle;whiteSpace=wrap;rounded=0;" parent="7CatKWjEML8j9O0Hms15-79" vertex="1">
          <mxGeometry x="-10" y="100" width="30" height="30" as="geometry" />
        </mxCell>
        <mxCell id="7CatKWjEML8j9O0Hms15-86" value="rst" style="text;html=1;strokeColor=none;fillColor=none;align=center;verticalAlign=middle;whiteSpace=wrap;rounded=0;" parent="7CatKWjEML8j9O0Hms15-79" vertex="1">
          <mxGeometry x="75" y="180" width="30" height="30" as="geometry" />
        </mxCell>
        <mxCell id="7CatKWjEML8j9O0Hms15-87" value="" style="endArrow=none;html=1;rounded=0;exitX=0.5;exitY=0;exitDx=0;exitDy=0;entryX=0.5;entryY=1;entryDx=0;entryDy=0;" parent="7CatKWjEML8j9O0Hms15-79" target="7CatKWjEML8j9O0Hms15-83" edge="1">
          <mxGeometry width="50" height="50" relative="1" as="geometry">
            <mxPoint x="90" y="180" as="sourcePoint" />
            <mxPoint x="100" y="90" as="targetPoint" />
          </mxGeometry>
        </mxCell>
        <mxCell id="7CatKWjEML8j9O0Hms15-88" style="edgeStyle=orthogonalEdgeStyle;rounded=0;orthogonalLoop=1;jettySize=auto;html=1;" parent="1" source="7CatKWjEML8j9O0Hms15-89" edge="1">
          <mxGeometry relative="1" as="geometry">
            <mxPoint x="640" y="1275" as="targetPoint" />
          </mxGeometry>
        </mxCell>
        <mxCell id="7CatKWjEML8j9O0Hms15-89" value="button_2" style="text;html=1;strokeColor=default;fillColor=none;align=center;verticalAlign=middle;whiteSpace=wrap;rounded=1;" parent="1" vertex="1">
          <mxGeometry x="520" y="1260" width="80" height="30" as="geometry" />
        </mxCell>
        <mxCell id="7CatKWjEML8j9O0Hms15-102" value="next_score" style="edgeStyle=orthogonalEdgeStyle;rounded=0;orthogonalLoop=1;jettySize=auto;html=1;exitX=1;exitY=0.25;exitDx=0;exitDy=0;entryX=0;entryY=0.25;entryDx=0;entryDy=0;" parent="1" source="7CatKWjEML8j9O0Hms15-90" target="7CatKWjEML8j9O0Hms15-95" edge="1">
          <mxGeometry relative="1" as="geometry" />
        </mxCell>
        <mxCell id="ZrkxS-IGlXJ0fzdZeAPc-16" value="next_hit" style="edgeStyle=orthogonalEdgeStyle;rounded=0;orthogonalLoop=1;jettySize=auto;html=1;entryX=0;entryY=0.5;entryDx=0;entryDy=0;" parent="1" source="7CatKWjEML8j9O0Hms15-90" target="ZrkxS-IGlXJ0fzdZeAPc-7" edge="1">
          <mxGeometry x="0.3725" relative="1" as="geometry">
            <mxPoint x="1" as="offset" />
          </mxGeometry>
        </mxCell>
        <mxCell id="ZrkxS-IGlXJ0fzdZeAPc-17" value="next_missed" style="edgeStyle=orthogonalEdgeStyle;rounded=0;orthogonalLoop=1;jettySize=auto;html=1;exitX=0.5;exitY=1;exitDx=0;exitDy=0;entryX=0;entryY=0.5;entryDx=0;entryDy=0;" parent="1" source="7CatKWjEML8j9O0Hms15-90" target="ZrkxS-IGlXJ0fzdZeAPc-11" edge="1">
          <mxGeometry relative="1" as="geometry">
            <Array as="points">
              <mxPoint x="1220" y="1360" />
              <mxPoint x="1220" y="1745" />
            </Array>
          </mxGeometry>
        </mxCell>
        <mxCell id="7CatKWjEML8j9O0Hms15-90" value="&lt;div style=&quot;text-align: left&quot;&gt;&lt;span&gt;if (key_clk)&lt;/span&gt;&lt;br&gt;&lt;/div&gt;&lt;div style=&quot;text-align: left&quot;&gt;&lt;span&gt;&lt;span&gt;&lt;span&gt;&amp;nbsp;&amp;nbsp;&amp;nbsp;&amp;nbsp;&lt;/span&gt;&lt;/span&gt;case ({pushed_1, key_1[31]})&lt;/span&gt;&lt;/div&gt;&lt;div style=&quot;text-align: left&quot;&gt;&lt;span&gt;&lt;span&gt;&lt;span&gt;&amp;nbsp;&amp;nbsp;&amp;nbsp;&amp;nbsp;&lt;/span&gt;&lt;span&gt;&lt;span&gt;&amp;nbsp;&amp;nbsp;&amp;nbsp;&amp;nbsp;&lt;/span&gt;&lt;/span&gt;2&lt;/span&gt;&#39;b11: next_score = score + 3&lt;br&gt;&lt;/span&gt;&lt;/div&gt;&lt;div style=&quot;text-align: left&quot;&gt;&lt;span&gt;&lt;span&gt; &lt;/span&gt;&lt;span&gt; &lt;span&gt; &lt;/span&gt;&lt;span style=&quot;white-space: pre&quot;&gt; &lt;/span&gt;&lt;span style=&quot;white-space: pre&quot;&gt; &lt;/span&gt;n&lt;/span&gt;ext_hit = hit + 1;&lt;br&gt;&lt;/span&gt;&lt;/div&gt;&lt;div style=&quot;text-align: left&quot;&gt;&lt;span&gt;&lt;span&gt;&lt;span&gt;&amp;nbsp;&amp;nbsp;&amp;nbsp;&amp;nbsp;&lt;/span&gt;&lt;/span&gt;&lt;span&gt;&lt;span&gt;&amp;nbsp;&amp;nbsp;&amp;nbsp;&amp;nbsp;&lt;/span&gt;&lt;/span&gt;2&#39;b01: next_score = score - 1;&lt;br&gt;&lt;/span&gt;&lt;/div&gt;&lt;div style=&quot;text-align: left&quot;&gt;&lt;span&gt;&lt;span&gt; &lt;/span&gt;&lt;span&gt; &lt;/span&gt;&lt;span&gt; &lt;/span&gt;&lt;span style=&quot;white-space: pre&quot;&gt; &lt;/span&gt;&lt;span style=&quot;white-space: pre&quot;&gt; &lt;/span&gt;next_missed = miss + 1;&lt;br&gt;&lt;/span&gt;&lt;/div&gt;&lt;div style=&quot;text-align: left&quot;&gt;&lt;span&gt;&lt;span style=&quot;white-space: pre&quot;&gt; &lt;/span&gt;&lt;span style=&quot;white-space: pre&quot;&gt; &lt;/span&gt;if score &amp;lt; 0: next_score = 0;&lt;br&gt;&lt;/span&gt;&lt;/div&gt;&lt;div style=&quot;text-align: left&quot;&gt;&lt;span&gt;&lt;span&gt;&lt;span&gt;&amp;nbsp;&amp;nbsp;&amp;nbsp;&amp;nbsp;&lt;/span&gt;&lt;/span&gt;&lt;span&gt;&lt;span&gt;&amp;nbsp;&amp;nbsp;&amp;nbsp;&amp;nbsp;&lt;/span&gt;&lt;/span&gt;default: next_score = score;&lt;br&gt;&lt;/span&gt;&lt;/div&gt;&lt;div style=&quot;text-align: left&quot;&gt;&lt;span&gt;&lt;span&gt;&lt;span&gt;&amp;nbsp;&amp;nbsp;&amp;nbsp;&amp;nbsp;&lt;/span&gt;&lt;/span&gt;endcase&lt;br&gt;&lt;/span&gt;&lt;/div&gt;&lt;div style=&quot;text-align: left&quot;&gt;&lt;span&gt;&lt;br&gt;&lt;/span&gt;&lt;/div&gt;&lt;div style=&quot;text-align: left&quot;&gt;&lt;div&gt;&amp;nbsp; &amp;nbsp; case ({pushed_2, key_2[31]})&lt;span&gt;&lt;/span&gt;&lt;/div&gt;&lt;div&gt;&lt;span&gt;&lt;span&gt;&lt;span&gt;&amp;nbsp;&amp;nbsp;&amp;nbsp;&amp;nbsp;&lt;/span&gt;&lt;span&gt;&lt;span&gt;&amp;nbsp;&amp;nbsp;&amp;nbsp;&amp;nbsp;&lt;/span&gt;&lt;/span&gt;2&lt;/span&gt;&#39;b11: next_score = score + 3;&lt;br&gt;&lt;/span&gt;&lt;/div&gt;&lt;div&gt;&lt;span&gt;&lt;span&gt; &lt;/span&gt;&lt;/span&gt;&lt;span&gt; &lt;/span&gt;&lt;span&gt; &lt;span&gt; &lt;/span&gt;&lt;span style=&quot;white-space: pre&quot;&gt; &lt;/span&gt;&lt;span style=&quot;white-space: pre&quot;&gt; &lt;/span&gt;n&lt;/span&gt;&lt;span&gt;ext_hit = hit + 1;&lt;/span&gt;&lt;/div&gt;&lt;div&gt;&lt;span&gt;&lt;span&gt;&lt;span&gt;&amp;nbsp;&amp;nbsp;&amp;nbsp;&amp;nbsp;&lt;/span&gt;&lt;/span&gt;&lt;span&gt;&lt;span&gt;&amp;nbsp;&amp;nbsp;&amp;nbsp;&amp;nbsp;&lt;/span&gt;&lt;/span&gt;2&#39;b01: next_score = score - 1;&lt;br&gt;&lt;/span&gt;&lt;/div&gt;&lt;div&gt;&lt;span&gt;&lt;span style=&quot;white-space: pre&quot;&gt; &lt;/span&gt;&lt;span style=&quot;white-space: pre&quot;&gt; &lt;/span&gt;next_missed = miss + 1;&lt;br&gt;&lt;/span&gt;&lt;/div&gt;&lt;div&gt;&lt;span&gt;&lt;span style=&quot;white-space: pre&quot;&gt; &lt;/span&gt;&lt;span style=&quot;white-space: pre&quot;&gt; &lt;/span&gt;if score &amp;lt; 0: next_score = 0;&lt;br&gt;&lt;/span&gt;&lt;/div&gt;&lt;div&gt;&lt;span&gt;&lt;span&gt;&lt;span&gt;&amp;nbsp;&amp;nbsp;&amp;nbsp;&amp;nbsp;&lt;/span&gt;&lt;/span&gt;&lt;span&gt;&lt;span&gt;&amp;nbsp;&amp;nbsp;&amp;nbsp;&amp;nbsp;&lt;/span&gt;&lt;/span&gt;default: next_score = score;&lt;br&gt;&lt;/span&gt;&lt;/div&gt;&lt;div&gt;&lt;span&gt;&lt;span&gt;&lt;span&gt;&amp;nbsp;&amp;nbsp;&amp;nbsp;&amp;nbsp;&lt;/span&gt;&lt;/span&gt;endcase&lt;/span&gt;&lt;/div&gt;&lt;/div&gt;&lt;div style=&quot;text-align: left&quot;&gt;&lt;span&gt;else&lt;/span&gt;&lt;/div&gt;&lt;div style=&quot;text-align: left&quot;&gt;&lt;span&gt;&lt;span&gt;&lt;span&gt;&amp;nbsp;&amp;nbsp;&amp;nbsp;&amp;nbsp;&lt;/span&gt;&lt;/span&gt;next_score = score;&lt;br&gt;&lt;/span&gt;&lt;/div&gt;" style="rounded=0;whiteSpace=wrap;html=1;" parent="1" vertex="1">
          <mxGeometry x="1120" y="1010" width="340" height="350" as="geometry" />
        </mxCell>
        <mxCell id="7CatKWjEML8j9O0Hms15-16" value="&lt;font face=&quot;Helvetica&quot;&gt;key_clk&lt;/font&gt;" style="edgeStyle=orthogonalEdgeStyle;rounded=0;hachureGap=4;orthogonalLoop=1;jettySize=auto;html=1;exitX=1;exitY=0.25;exitDx=0;exitDy=0;fontFamily=Architects Daughter;fontSource=https%3A%2F%2Ffonts.googleapis.com%2Fcss%3Ffamily%3DArchitects%2BDaughter;fontSize=16;entryX=0.06;entryY=0.01;entryDx=0;entryDy=0;entryPerimeter=0;" parent="1" source="7CatKWjEML8j9O0Hms15-6" target="7CatKWjEML8j9O0Hms15-90" edge="1">
          <mxGeometry relative="1" as="geometry">
            <mxPoint x="1290" y="1000" as="targetPoint" />
            <Array as="points">
              <mxPoint x="1140" y="777" />
              <mxPoint x="1140" y="1008" />
            </Array>
          </mxGeometry>
        </mxCell>
        <mxCell id="7CatKWjEML8j9O0Hms15-93" value="" style="group" parent="1" connectable="0" vertex="1">
          <mxGeometry x="1520" y="1060" width="160" height="210" as="geometry" />
        </mxCell>
        <mxCell id="7CatKWjEML8j9O0Hms15-95" value="FF (4 bits)" style="rounded=0;whiteSpace=wrap;html=1;" parent="7CatKWjEML8j9O0Hms15-93" vertex="1">
          <mxGeometry x="50" width="100" height="150" as="geometry" />
        </mxCell>
        <mxCell id="7CatKWjEML8j9O0Hms15-96" value="" style="triangle;whiteSpace=wrap;html=1;" parent="7CatKWjEML8j9O0Hms15-93" vertex="1">
          <mxGeometry x="50" y="100" width="20" height="30" as="geometry" />
        </mxCell>
        <mxCell id="7CatKWjEML8j9O0Hms15-97" value="" style="ellipse;whiteSpace=wrap;html=1;aspect=fixed;" parent="7CatKWjEML8j9O0Hms15-93" vertex="1">
          <mxGeometry x="90" y="150" width="20" height="20" as="geometry" />
        </mxCell>
        <mxCell id="7CatKWjEML8j9O0Hms15-98" value="" style="endArrow=none;html=1;rounded=0;exitX=0;exitY=0.5;exitDx=0;exitDy=0;" parent="7CatKWjEML8j9O0Hms15-93" source="7CatKWjEML8j9O0Hms15-96" edge="1">
          <mxGeometry width="50" height="50" relative="1" as="geometry">
            <mxPoint x="60" y="140" as="sourcePoint" />
            <mxPoint x="30" y="115" as="targetPoint" />
          </mxGeometry>
        </mxCell>
        <mxCell id="7CatKWjEML8j9O0Hms15-99" value="clk" style="text;html=1;strokeColor=none;fillColor=none;align=center;verticalAlign=middle;whiteSpace=wrap;rounded=0;" parent="7CatKWjEML8j9O0Hms15-93" vertex="1">
          <mxGeometry y="100" width="30" height="30" as="geometry" />
        </mxCell>
        <mxCell id="7CatKWjEML8j9O0Hms15-100" value="rst" style="text;html=1;strokeColor=none;fillColor=none;align=center;verticalAlign=middle;whiteSpace=wrap;rounded=0;" parent="7CatKWjEML8j9O0Hms15-93" vertex="1">
          <mxGeometry x="85" y="180" width="30" height="30" as="geometry" />
        </mxCell>
        <mxCell id="7CatKWjEML8j9O0Hms15-101" value="" style="endArrow=none;html=1;rounded=0;exitX=0.5;exitY=0;exitDx=0;exitDy=0;entryX=0.5;entryY=1;entryDx=0;entryDy=0;" parent="7CatKWjEML8j9O0Hms15-93" source="7CatKWjEML8j9O0Hms15-100" target="7CatKWjEML8j9O0Hms15-97" edge="1">
          <mxGeometry width="50" height="50" relative="1" as="geometry">
            <mxPoint x="60" y="140" as="sourcePoint" />
            <mxPoint x="110" y="90" as="targetPoint" />
          </mxGeometry>
        </mxCell>
        <mxCell id="7CatKWjEML8j9O0Hms15-94" value="score" style="edgeStyle=orthogonalEdgeStyle;rounded=0;orthogonalLoop=1;jettySize=auto;html=1;exitX=1;exitY=0.25;exitDx=0;exitDy=0;entryX=0.75;entryY=0;entryDx=0;entryDy=0;" parent="1" source="7CatKWjEML8j9O0Hms15-95" target="7CatKWjEML8j9O0Hms15-90" edge="1">
          <mxGeometry relative="1" as="geometry">
            <mxPoint x="1730" y="1097.7142857142858" as="targetPoint" />
            <Array as="points">
              <mxPoint x="1690" y="1097" />
              <mxPoint x="1690" y="990" />
              <mxPoint x="1375" y="990" />
            </Array>
          </mxGeometry>
        </mxCell>
        <mxCell id="7CatKWjEML8j9O0Hms15-107" style="edgeStyle=orthogonalEdgeStyle;rounded=0;orthogonalLoop=1;jettySize=auto;html=1;exitX=1;exitY=0.25;exitDx=0;exitDy=0;entryX=0;entryY=0.25;entryDx=0;entryDy=0;" parent="1" source="7CatKWjEML8j9O0Hms15-6" target="7CatKWjEML8j9O0Hms15-106" edge="1">
          <mxGeometry relative="1" as="geometry" />
        </mxCell>
        <mxCell id="7CatKWjEML8j9O0Hms15-108" value="" style="group" parent="1" connectable="0" vertex="1">
          <mxGeometry x="880" y="560" width="320" height="210" as="geometry" />
        </mxCell>
        <mxCell id="7CatKWjEML8j9O0Hms15-117" value="next_key2" style="edgeStyle=orthogonalEdgeStyle;rounded=0;orthogonalLoop=1;jettySize=auto;html=1;exitX=1;exitY=0.25;exitDx=0;exitDy=0;entryX=0;entryY=0.25;entryDx=0;entryDy=0;" parent="7CatKWjEML8j9O0Hms15-108" source="7CatKWjEML8j9O0Hms15-106" target="7CatKWjEML8j9O0Hms15-110" edge="1">
          <mxGeometry relative="1" as="geometry" />
        </mxCell>
        <mxCell id="7CatKWjEML8j9O0Hms15-106" value="&lt;div align=&quot;left&quot;&gt;if (key_clk)&lt;/div&gt;&lt;div align=&quot;left&quot;&gt;&amp;nbsp; next_key1 = key_1 &amp;lt;&amp;lt; 1;&lt;/div&gt;&lt;div align=&quot;left&quot;&gt;&amp;nbsp; next_key2 = key_2 &amp;lt;&amp;lt; 1;&lt;/div&gt;&lt;div align=&quot;left&quot;&gt;else&lt;/div&gt;&lt;div align=&quot;left&quot;&gt;&amp;nbsp; next_key1 = key_1;&lt;/div&gt;&lt;div align=&quot;left&quot;&gt;&amp;nbsp; next_key2 = key_2;&lt;br&gt;&lt;/div&gt;&lt;div align=&quot;left&quot;&gt;&lt;br&gt;&lt;/div&gt;&lt;div align=&quot;left&quot;&gt;&lt;br&gt;&lt;/div&gt;" style="rounded=0;whiteSpace=wrap;html=1;align=left;" parent="7CatKWjEML8j9O0Hms15-108" vertex="1">
          <mxGeometry x="120" y="-50" width="150" height="150" as="geometry" />
        </mxCell>
        <mxCell id="7CatKWjEML8j9O0Hms15-130" style="edgeStyle=orthogonalEdgeStyle;rounded=0;orthogonalLoop=1;jettySize=auto;html=1;exitX=1;exitY=0.25;exitDx=0;exitDy=0;entryX=0.5;entryY=1;entryDx=0;entryDy=0;" parent="7CatKWjEML8j9O0Hms15-108" source="7CatKWjEML8j9O0Hms15-110" target="7CatKWjEML8j9O0Hms15-106" edge="1">
          <mxGeometry relative="1" as="geometry">
            <Array as="points">
              <mxPoint x="500" y="-32" />
              <mxPoint x="500" y="150" />
              <mxPoint x="195" y="150" />
            </Array>
          </mxGeometry>
        </mxCell>
        <mxCell id="7CatKWjEML8j9O0Hms15-110" value="FF" style="rounded=0;whiteSpace=wrap;html=1;" parent="7CatKWjEML8j9O0Hms15-108" vertex="1">
          <mxGeometry x="380" y="-70" width="100" height="150" as="geometry" />
        </mxCell>
        <mxCell id="7CatKWjEML8j9O0Hms15-111" value="" style="triangle;whiteSpace=wrap;html=1;" parent="7CatKWjEML8j9O0Hms15-108" vertex="1">
          <mxGeometry x="380" y="30" width="20" height="30" as="geometry" />
        </mxCell>
        <mxCell id="7CatKWjEML8j9O0Hms15-112" value="" style="ellipse;whiteSpace=wrap;html=1;aspect=fixed;" parent="7CatKWjEML8j9O0Hms15-108" vertex="1">
          <mxGeometry x="420" y="80" width="20" height="20" as="geometry" />
        </mxCell>
        <mxCell id="7CatKWjEML8j9O0Hms15-113" value="" style="endArrow=none;html=1;rounded=0;exitX=0;exitY=0.5;exitDx=0;exitDy=0;" parent="7CatKWjEML8j9O0Hms15-108" source="7CatKWjEML8j9O0Hms15-111" edge="1">
          <mxGeometry width="50" height="50" relative="1" as="geometry">
            <mxPoint x="390" y="70" as="sourcePoint" />
            <mxPoint x="360" y="45" as="targetPoint" />
          </mxGeometry>
        </mxCell>
        <mxCell id="7CatKWjEML8j9O0Hms15-114" value="clk" style="text;html=1;strokeColor=none;fillColor=none;align=center;verticalAlign=middle;whiteSpace=wrap;rounded=0;" parent="7CatKWjEML8j9O0Hms15-108" vertex="1">
          <mxGeometry x="330" y="30" width="30" height="30" as="geometry" />
        </mxCell>
        <mxCell id="7CatKWjEML8j9O0Hms15-116" value="" style="endArrow=none;html=1;rounded=0;exitX=0.5;exitY=0;exitDx=0;exitDy=0;entryX=0.5;entryY=1;entryDx=0;entryDy=0;" parent="7CatKWjEML8j9O0Hms15-108" target="7CatKWjEML8j9O0Hms15-112" edge="1">
          <mxGeometry width="50" height="50" relative="1" as="geometry">
            <mxPoint x="430" y="110" as="sourcePoint" />
            <mxPoint x="440" y="20" as="targetPoint" />
          </mxGeometry>
        </mxCell>
        <mxCell id="7CatKWjEML8j9O0Hms15-118" value="" style="group" parent="7CatKWjEML8j9O0Hms15-108" connectable="0" vertex="1">
          <mxGeometry x="330" y="-280" width="150" height="210" as="geometry" />
        </mxCell>
        <mxCell id="7CatKWjEML8j9O0Hms15-120" value="FF" style="rounded=0;whiteSpace=wrap;html=1;" parent="7CatKWjEML8j9O0Hms15-118" vertex="1">
          <mxGeometry x="50" width="100" height="150" as="geometry" />
        </mxCell>
        <mxCell id="7CatKWjEML8j9O0Hms15-121" value="" style="triangle;whiteSpace=wrap;html=1;" parent="7CatKWjEML8j9O0Hms15-118" vertex="1">
          <mxGeometry x="50" y="100" width="20" height="30" as="geometry" />
        </mxCell>
        <mxCell id="7CatKWjEML8j9O0Hms15-122" value="" style="ellipse;whiteSpace=wrap;html=1;aspect=fixed;" parent="7CatKWjEML8j9O0Hms15-118" vertex="1">
          <mxGeometry x="90" y="150" width="20" height="20" as="geometry" />
        </mxCell>
        <mxCell id="7CatKWjEML8j9O0Hms15-123" value="" style="endArrow=none;html=1;rounded=0;exitX=0;exitY=0.5;exitDx=0;exitDy=0;" parent="7CatKWjEML8j9O0Hms15-118" source="7CatKWjEML8j9O0Hms15-121" edge="1">
          <mxGeometry width="50" height="50" relative="1" as="geometry">
            <mxPoint x="60" y="140" as="sourcePoint" />
            <mxPoint x="30" y="115" as="targetPoint" />
          </mxGeometry>
        </mxCell>
        <mxCell id="7CatKWjEML8j9O0Hms15-124" value="clk" style="text;html=1;strokeColor=none;fillColor=none;align=center;verticalAlign=middle;whiteSpace=wrap;rounded=0;" parent="7CatKWjEML8j9O0Hms15-118" vertex="1">
          <mxGeometry y="100" width="30" height="30" as="geometry" />
        </mxCell>
        <mxCell id="7CatKWjEML8j9O0Hms15-125" value="rst" style="text;html=1;strokeColor=none;fillColor=none;align=center;verticalAlign=middle;whiteSpace=wrap;rounded=0;" parent="7CatKWjEML8j9O0Hms15-118" vertex="1">
          <mxGeometry x="85" y="180" width="30" height="30" as="geometry" />
        </mxCell>
        <mxCell id="7CatKWjEML8j9O0Hms15-126" value="" style="endArrow=none;html=1;rounded=0;exitX=0.5;exitY=0;exitDx=0;exitDy=0;entryX=0.5;entryY=1;entryDx=0;entryDy=0;" parent="7CatKWjEML8j9O0Hms15-118" source="7CatKWjEML8j9O0Hms15-125" target="7CatKWjEML8j9O0Hms15-122" edge="1">
          <mxGeometry width="50" height="50" relative="1" as="geometry">
            <mxPoint x="60" y="140" as="sourcePoint" />
            <mxPoint x="110" y="90" as="targetPoint" />
          </mxGeometry>
        </mxCell>
        <mxCell id="7CatKWjEML8j9O0Hms15-127" value="next_key1" style="edgeStyle=orthogonalEdgeStyle;rounded=0;orthogonalLoop=1;jettySize=auto;html=1;exitX=0.75;exitY=0;exitDx=0;exitDy=0;entryX=0;entryY=0.25;entryDx=0;entryDy=0;" parent="7CatKWjEML8j9O0Hms15-108" source="7CatKWjEML8j9O0Hms15-106" target="7CatKWjEML8j9O0Hms15-120" edge="1">
          <mxGeometry relative="1" as="geometry">
            <Array as="points">
              <mxPoint x="260" y="-50" />
              <mxPoint x="260" y="-242" />
            </Array>
          </mxGeometry>
        </mxCell>
        <mxCell id="7CatKWjEML8j9O0Hms15-129" style="edgeStyle=orthogonalEdgeStyle;rounded=0;orthogonalLoop=1;jettySize=auto;html=1;exitX=1;exitY=0.25;exitDx=0;exitDy=0;entryX=0.5;entryY=0;entryDx=0;entryDy=0;" parent="7CatKWjEML8j9O0Hms15-108" source="7CatKWjEML8j9O0Hms15-120" target="7CatKWjEML8j9O0Hms15-106" edge="1">
          <mxGeometry relative="1" as="geometry">
            <mxPoint x="210" y="-100" as="targetPoint" />
            <Array as="points">
              <mxPoint x="500" y="-242" />
              <mxPoint x="500" y="-300" />
              <mxPoint x="195" y="-300" />
            </Array>
          </mxGeometry>
        </mxCell>
        <mxCell id="7CatKWjEML8j9O0Hms15-119" value="key_1" style="edgeStyle=orthogonalEdgeStyle;rounded=0;orthogonalLoop=1;jettySize=auto;html=1;exitX=1;exitY=0.25;exitDx=0;exitDy=0;entryX=0.573;entryY=-0.003;entryDx=0;entryDy=0;entryPerimeter=0;" parent="1" source="7CatKWjEML8j9O0Hms15-120" target="7CatKWjEML8j9O0Hms15-90" edge="1">
          <mxGeometry relative="1" as="geometry">
            <mxPoint x="1090" y="387.71428571428567" as="targetPoint" />
            <Array as="points">
              <mxPoint x="1450" y="317" />
              <mxPoint x="1450" y="870" />
              <mxPoint x="1315" y="870" />
            </Array>
          </mxGeometry>
        </mxCell>
        <mxCell id="7CatKWjEML8j9O0Hms15-109" value="key_2" style="edgeStyle=orthogonalEdgeStyle;rounded=0;orthogonalLoop=1;jettySize=auto;html=1;exitX=1;exitY=0.25;exitDx=0;exitDy=0;entryX=0.298;entryY=0.011;entryDx=0;entryDy=0;entryPerimeter=0;" parent="1" source="7CatKWjEML8j9O0Hms15-110" target="7CatKWjEML8j9O0Hms15-90" edge="1">
          <mxGeometry relative="1" as="geometry">
            <mxPoint x="1090" y="597.7142857142857" as="targetPoint" />
          </mxGeometry>
        </mxCell>
        <mxCell id="7CatKWjEML8j9O0Hms15-154" value="rst" style="text;html=1;align=center;verticalAlign=middle;resizable=0;points=[];autosize=1;strokeColor=none;fillColor=none;" parent="1" vertex="1">
          <mxGeometry x="1290" y="670" width="40" height="30" as="geometry" />
        </mxCell>
        <mxCell id="ZrkxS-IGlXJ0fzdZeAPc-6" value="" style="group" parent="1" vertex="1" connectable="0">
          <mxGeometry x="1410" y="1410" width="120" height="200" as="geometry" />
        </mxCell>
        <mxCell id="ZrkxS-IGlXJ0fzdZeAPc-7" value="FF (3 bits)" style="rounded=0;whiteSpace=wrap;html=1;" parent="ZrkxS-IGlXJ0fzdZeAPc-6" vertex="1">
          <mxGeometry width="120" height="170" as="geometry" />
        </mxCell>
        <mxCell id="ZrkxS-IGlXJ0fzdZeAPc-8" value="" style="ellipse;whiteSpace=wrap;html=1;aspect=fixed;" parent="ZrkxS-IGlXJ0fzdZeAPc-6" vertex="1">
          <mxGeometry x="45" y="170" width="30" height="30" as="geometry" />
        </mxCell>
        <mxCell id="ZrkxS-IGlXJ0fzdZeAPc-9" value="" style="triangle;whiteSpace=wrap;html=1;" parent="ZrkxS-IGlXJ0fzdZeAPc-6" vertex="1">
          <mxGeometry y="130" width="20" height="30" as="geometry" />
        </mxCell>
        <mxCell id="ZrkxS-IGlXJ0fzdZeAPc-10" value="" style="group" parent="1" vertex="1" connectable="0">
          <mxGeometry x="1410" y="1660" width="120" height="200" as="geometry" />
        </mxCell>
        <mxCell id="ZrkxS-IGlXJ0fzdZeAPc-11" value="FF (3 bits)" style="rounded=0;whiteSpace=wrap;html=1;" parent="ZrkxS-IGlXJ0fzdZeAPc-10" vertex="1">
          <mxGeometry width="120" height="170" as="geometry" />
        </mxCell>
        <mxCell id="ZrkxS-IGlXJ0fzdZeAPc-12" value="" style="ellipse;whiteSpace=wrap;html=1;aspect=fixed;" parent="ZrkxS-IGlXJ0fzdZeAPc-10" vertex="1">
          <mxGeometry x="45" y="170" width="30" height="30" as="geometry" />
        </mxCell>
        <mxCell id="ZrkxS-IGlXJ0fzdZeAPc-13" value="" style="triangle;whiteSpace=wrap;html=1;" parent="ZrkxS-IGlXJ0fzdZeAPc-10" vertex="1">
          <mxGeometry y="130" width="20" height="30" as="geometry" />
        </mxCell>
        <mxCell id="ZrkxS-IGlXJ0fzdZeAPc-21" style="edgeStyle=orthogonalEdgeStyle;rounded=0;orthogonalLoop=1;jettySize=auto;html=1;" parent="1" source="ZrkxS-IGlXJ0fzdZeAPc-14" edge="1">
          <mxGeometry relative="1" as="geometry">
            <mxPoint x="1460" y="1340" as="targetPoint" />
            <Array as="points">
              <mxPoint x="1640" y="1480" />
              <mxPoint x="1640" y="1340" />
              <mxPoint x="1460" y="1340" />
            </Array>
          </mxGeometry>
        </mxCell>
        <mxCell id="ZrkxS-IGlXJ0fzdZeAPc-14" value="hit" style="text;html=1;align=center;verticalAlign=middle;resizable=0;points=[];autosize=1;strokeColor=none;fillColor=none;" parent="1" vertex="1">
          <mxGeometry x="1575" y="1470" width="30" height="20" as="geometry" />
        </mxCell>
        <mxCell id="ZrkxS-IGlXJ0fzdZeAPc-22" style="edgeStyle=orthogonalEdgeStyle;rounded=0;orthogonalLoop=1;jettySize=auto;html=1;entryX=1.001;entryY=0.879;entryDx=0;entryDy=0;entryPerimeter=0;" parent="1" source="ZrkxS-IGlXJ0fzdZeAPc-15" target="7CatKWjEML8j9O0Hms15-90" edge="1">
          <mxGeometry relative="1" as="geometry">
            <Array as="points">
              <mxPoint x="1660" y="1730" />
              <mxPoint x="1660" y="1318" />
            </Array>
          </mxGeometry>
        </mxCell>
        <mxCell id="ZrkxS-IGlXJ0fzdZeAPc-15" value="missed" style="text;html=1;align=center;verticalAlign=middle;resizable=0;points=[];autosize=1;strokeColor=none;fillColor=none;" parent="1" vertex="1">
          <mxGeometry x="1565" y="1720" width="50" height="20" as="geometry" />
        </mxCell>
        <mxCell id="ZrkxS-IGlXJ0fzdZeAPc-19" style="edgeStyle=orthogonalEdgeStyle;rounded=0;orthogonalLoop=1;jettySize=auto;html=1;entryX=0.113;entryY=0.336;entryDx=0;entryDy=0;entryPerimeter=0;" parent="1" source="ZrkxS-IGlXJ0fzdZeAPc-7" target="ZrkxS-IGlXJ0fzdZeAPc-14" edge="1">
          <mxGeometry relative="1" as="geometry" />
        </mxCell>
        <mxCell id="ZrkxS-IGlXJ0fzdZeAPc-20" style="edgeStyle=orthogonalEdgeStyle;rounded=0;orthogonalLoop=1;jettySize=auto;html=1;entryX=0.001;entryY=0.36;entryDx=0;entryDy=0;entryPerimeter=0;" parent="1" source="ZrkxS-IGlXJ0fzdZeAPc-11" target="ZrkxS-IGlXJ0fzdZeAPc-15" edge="1">
          <mxGeometry relative="1" as="geometry" />
        </mxCell>
        <mxCell id="ysZuTdz0AB-t4gffEBgU-1" value="clk" style="text;html=1;align=center;verticalAlign=middle;resizable=0;points=[];autosize=1;strokeColor=none;fillColor=none;" parent="1" vertex="1">
          <mxGeometry x="1375" y="1540" width="30" height="20" as="geometry" />
        </mxCell>
        <mxCell id="ysZuTdz0AB-t4gffEBgU-2" value="rst" style="text;html=1;align=center;verticalAlign=middle;resizable=0;points=[];autosize=1;strokeColor=none;fillColor=none;" parent="1" vertex="1">
          <mxGeometry x="1455" y="1610" width="30" height="20" as="geometry" />
        </mxCell>
        <mxCell id="ysZuTdz0AB-t4gffEBgU-3" value="clk" style="text;html=1;align=center;verticalAlign=middle;resizable=0;points=[];autosize=1;strokeColor=none;fillColor=none;" parent="1" vertex="1">
          <mxGeometry x="1375" y="1800" width="30" height="20" as="geometry" />
        </mxCell>
        <mxCell id="ysZuTdz0AB-t4gffEBgU-4" value="rst" style="text;html=1;align=center;verticalAlign=middle;resizable=0;points=[];autosize=1;strokeColor=none;fillColor=none;" parent="1" vertex="1">
          <mxGeometry x="1455" y="1870" width="30" height="20" as="geometry" />
        </mxCell>
        <mxCell id="ysZuTdz0AB-t4gffEBgU-13" value="next_high" style="edgeStyle=orthogonalEdgeStyle;rounded=0;orthogonalLoop=1;jettySize=auto;html=1;entryX=0;entryY=0.5;entryDx=0;entryDy=0;" parent="1" source="ysZuTdz0AB-t4gffEBgU-7" target="ysZuTdz0AB-t4gffEBgU-10" edge="1">
          <mxGeometry relative="1" as="geometry" />
        </mxCell>
        <mxCell id="ysZuTdz0AB-t4gffEBgU-7" value="&lt;div style=&quot;&quot;&gt;&lt;span&gt;if score &amp;gt; highest_score&lt;/span&gt;&lt;/div&gt;&lt;div style=&quot;&quot;&gt;&lt;span&gt;next_high = score&lt;/span&gt;&lt;/div&gt;&lt;div style=&quot;&quot;&gt;&lt;span&gt;else&lt;/span&gt;&lt;/div&gt;&lt;div style=&quot;&quot;&gt;&lt;span&gt;next_ high = highest_score&lt;/span&gt;&lt;/div&gt;" style="whiteSpace=wrap;html=1;aspect=fixed;rounded=0;strokeColor=default;align=center;labelPosition=center;verticalLabelPosition=middle;verticalAlign=middle;" parent="1" vertex="1">
          <mxGeometry x="1830" y="1070" width="250" height="250" as="geometry" />
        </mxCell>
        <mxCell id="ysZuTdz0AB-t4gffEBgU-8" style="edgeStyle=orthogonalEdgeStyle;rounded=0;orthogonalLoop=1;jettySize=auto;html=1;exitX=1;exitY=0.25;exitDx=0;exitDy=0;" parent="1" source="7CatKWjEML8j9O0Hms15-95" edge="1">
          <mxGeometry relative="1" as="geometry">
            <mxPoint x="1830" y="1162" as="targetPoint" />
          </mxGeometry>
        </mxCell>
        <mxCell id="ysZuTdz0AB-t4gffEBgU-9" value="" style="group" parent="1" vertex="1" connectable="0">
          <mxGeometry x="2260" y="1095" width="120" height="200" as="geometry" />
        </mxCell>
        <mxCell id="ysZuTdz0AB-t4gffEBgU-10" value="FF (4 bits)" style="rounded=0;whiteSpace=wrap;html=1;" parent="ysZuTdz0AB-t4gffEBgU-9" vertex="1">
          <mxGeometry width="120" height="170" as="geometry" />
        </mxCell>
        <mxCell id="ysZuTdz0AB-t4gffEBgU-11" value="" style="ellipse;whiteSpace=wrap;html=1;aspect=fixed;" parent="ysZuTdz0AB-t4gffEBgU-9" vertex="1">
          <mxGeometry x="45" y="170" width="30" height="30" as="geometry" />
        </mxCell>
        <mxCell id="ysZuTdz0AB-t4gffEBgU-12" value="" style="triangle;whiteSpace=wrap;html=1;" parent="ysZuTdz0AB-t4gffEBgU-9" vertex="1">
          <mxGeometry y="130" width="20" height="30" as="geometry" />
        </mxCell>
        <mxCell id="ysZuTdz0AB-t4gffEBgU-17" style="edgeStyle=orthogonalEdgeStyle;rounded=0;orthogonalLoop=1;jettySize=auto;html=1;entryX=0.5;entryY=0;entryDx=0;entryDy=0;" parent="1" source="ysZuTdz0AB-t4gffEBgU-14" target="ysZuTdz0AB-t4gffEBgU-7" edge="1">
          <mxGeometry relative="1" as="geometry">
            <Array as="points">
              <mxPoint x="2470" y="1050" />
              <mxPoint x="1955" y="1050" />
            </Array>
          </mxGeometry>
        </mxCell>
        <mxCell id="ysZuTdz0AB-t4gffEBgU-14" value="highest_score" style="rounded=1;whiteSpace=wrap;html=1;strokeColor=default;" parent="1" vertex="1">
          <mxGeometry x="2430" y="1160" width="80" height="30" as="geometry" />
        </mxCell>
        <mxCell id="ysZuTdz0AB-t4gffEBgU-16" style="edgeStyle=orthogonalEdgeStyle;rounded=0;orthogonalLoop=1;jettySize=auto;html=1;exitX=1;exitY=0.5;exitDx=0;exitDy=0;entryX=0;entryY=0.5;entryDx=0;entryDy=0;" parent="1" source="ysZuTdz0AB-t4gffEBgU-10" target="ysZuTdz0AB-t4gffEBgU-14" edge="1">
          <mxGeometry relative="1" as="geometry" />
        </mxCell>
        <mxCell id="doWYCIJk3albXbdyMLMC-13" style="edgeStyle=orthogonalEdgeStyle;rounded=0;orthogonalLoop=1;jettySize=auto;html=1;entryX=0;entryY=0.25;entryDx=0;entryDy=0;" edge="1" parent="1" source="doWYCIJk3albXbdyMLMC-1" target="doWYCIJk3albXbdyMLMC-5">
          <mxGeometry relative="1" as="geometry" />
        </mxCell>
        <mxCell id="doWYCIJk3albXbdyMLMC-1" value="button_3" style="text;html=1;strokeColor=default;fillColor=none;align=center;verticalAlign=middle;whiteSpace=wrap;rounded=1;" vertex="1" parent="1">
          <mxGeometry x="-250" y="155" width="70" height="30" as="geometry" />
        </mxCell>
        <mxCell id="doWYCIJk3albXbdyMLMC-2" value="&lt;div style=&quot;&quot;&gt;&lt;span style=&quot;background-color: initial;&quot;&gt;if (pushed_3)&lt;/span&gt;&lt;/div&gt;&lt;div style=&quot;&quot;&gt;&lt;span style=&quot;background-color: initial;&quot;&gt;&lt;span style=&quot;&quot;&gt;	&lt;/span&gt;&lt;span style=&quot;white-space: pre;&quot;&gt;	&lt;/span&gt;case (mode)&lt;/span&gt;&lt;/div&gt;&lt;div style=&quot;&quot;&gt;&lt;span style=&quot;background-color: initial;&quot;&gt;&lt;span style=&quot;&quot;&gt;	&lt;/span&gt;&lt;span style=&quot;&quot;&gt;	&lt;/span&gt;&lt;span style=&quot;white-space: pre;&quot;&gt;	&lt;span style=&quot;white-space: pre;&quot;&gt;	&lt;/span&gt;&lt;/span&gt;IDLE: next_mode = EDIT;&lt;/span&gt;&lt;/div&gt;&lt;div style=&quot;&quot;&gt;&lt;span style=&quot;background-color: initial;&quot;&gt;&lt;span style=&quot;white-space: pre;&quot;&gt;	&lt;/span&gt;&lt;span style=&quot;white-space: pre;&quot;&gt;	&lt;/span&gt;EDIT: next_mode = DIFF;&lt;br&gt;&lt;/span&gt;&lt;/div&gt;&lt;div style=&quot;&quot;&gt;&lt;span style=&quot;background-color: initial;&quot;&gt;&lt;span style=&quot;white-space: pre;&quot;&gt;	&lt;/span&gt;&lt;span style=&quot;white-space: pre;&quot;&gt;	&lt;/span&gt;DIFF: next_mode = RUN;&lt;br&gt;&lt;/span&gt;&lt;/div&gt;&lt;div style=&quot;&quot;&gt;&lt;span style=&quot;background-color: initial;&quot;&gt;&lt;span style=&quot;white-space: pre;&quot;&gt;	&lt;span style=&quot;white-space: pre;&quot;&gt;	&lt;/span&gt;R&lt;/span&gt;UN: next_mode = PAUSE;&lt;br&gt;&lt;/span&gt;&lt;/div&gt;&lt;div style=&quot;&quot;&gt;&lt;span style=&quot;background-color: initial;&quot;&gt;&lt;span style=&quot;white-space: pre;&quot;&gt;	&lt;/span&gt;&lt;span style=&quot;white-space: pre;&quot;&gt;	&lt;/span&gt;PAUSE: next_mode = RUN;&lt;br&gt;&lt;/span&gt;&lt;/div&gt;&lt;div style=&quot;&quot;&gt;&lt;span style=&quot;white-space: pre;&quot;&gt;	&lt;/span&gt;&lt;span style=&quot;white-space: pre;&quot;&gt;	&lt;/span&gt;//FINISH set seperately&lt;br&gt;&lt;/div&gt;&lt;div style=&quot;&quot;&gt;&lt;span style=&quot;background-color: initial;&quot;&gt;&lt;span style=&quot;white-space: pre;&quot;&gt;	&lt;/span&gt;&lt;span style=&quot;white-space: pre;&quot;&gt;	&lt;/span&gt;FINISH: next_mode = IDLE;&lt;br&gt;&lt;/span&gt;&lt;/div&gt;&lt;div style=&quot;&quot;&gt;&lt;span style=&quot;background-color: initial;&quot;&gt;&lt;span style=&quot;white-space: pre;&quot;&gt;	&lt;/span&gt;endcase&lt;br&gt;&lt;/span&gt;&lt;/div&gt;&lt;div style=&quot;&quot;&gt;else&lt;/div&gt;&lt;div style=&quot;&quot;&gt;&lt;span style=&quot;white-space: pre;&quot;&gt;	&lt;/span&gt;next_mode = (note1 == 0 &amp;amp;&amp;amp; note2 == 0) ? &lt;span style=&quot;white-space: pre;&quot;&gt;	&lt;/span&gt;&lt;span style=&quot;white-space: pre;&quot;&gt;	&lt;/span&gt;&lt;span style=&quot;white-space: pre;&quot;&gt;	&lt;/span&gt;FINISH : mode;&lt;br&gt;&lt;/div&gt;&lt;div style=&quot;&quot;&gt;&lt;br&gt;&lt;/div&gt;&lt;div style=&quot;&quot;&gt;&lt;span style=&quot;background-color: initial;&quot;&gt;&amp;nbsp;&lt;br&gt;&lt;/span&gt;&lt;/div&gt;" style="rounded=0;whiteSpace=wrap;html=1;align=left;" vertex="1" parent="1">
          <mxGeometry x="20" y="120" width="290" height="250" as="geometry" />
        </mxCell>
        <mxCell id="doWYCIJk3albXbdyMLMC-3" value="" style="group" connectable="0" vertex="1" parent="1">
          <mxGeometry x="-120" y="210" width="150" height="210" as="geometry" />
        </mxCell>
        <mxCell id="doWYCIJk3albXbdyMLMC-4" style="edgeStyle=orthogonalEdgeStyle;rounded=0;orthogonalLoop=1;jettySize=auto;html=1;exitX=1;exitY=0.25;exitDx=0;exitDy=0;" edge="1" parent="doWYCIJk3albXbdyMLMC-3" source="doWYCIJk3albXbdyMLMC-5">
          <mxGeometry relative="1" as="geometry">
            <mxPoint x="140" y="-42.285714285714334" as="targetPoint" />
          </mxGeometry>
        </mxCell>
        <mxCell id="doWYCIJk3albXbdyMLMC-5" value="FF" style="rounded=0;whiteSpace=wrap;html=1;" vertex="1" parent="doWYCIJk3albXbdyMLMC-3">
          <mxGeometry x="-20" y="-80" width="100" height="150" as="geometry" />
        </mxCell>
        <mxCell id="doWYCIJk3albXbdyMLMC-6" value="" style="triangle;whiteSpace=wrap;html=1;" vertex="1" parent="doWYCIJk3albXbdyMLMC-3">
          <mxGeometry x="-20" y="20" width="20" height="30" as="geometry" />
        </mxCell>
        <mxCell id="doWYCIJk3albXbdyMLMC-7" value="" style="ellipse;whiteSpace=wrap;html=1;aspect=fixed;" vertex="1" parent="doWYCIJk3albXbdyMLMC-3">
          <mxGeometry x="20" y="70" width="20" height="20" as="geometry" />
        </mxCell>
        <mxCell id="doWYCIJk3albXbdyMLMC-8" value="" style="endArrow=none;html=1;rounded=0;exitX=0;exitY=0.5;exitDx=0;exitDy=0;" edge="1" parent="doWYCIJk3albXbdyMLMC-3" source="doWYCIJk3albXbdyMLMC-6">
          <mxGeometry width="50" height="50" relative="1" as="geometry">
            <mxPoint x="-10" y="60" as="sourcePoint" />
            <mxPoint x="-40" y="35" as="targetPoint" />
          </mxGeometry>
        </mxCell>
        <mxCell id="doWYCIJk3albXbdyMLMC-9" value="clk" style="text;html=1;strokeColor=none;fillColor=none;align=center;verticalAlign=middle;whiteSpace=wrap;rounded=0;" vertex="1" parent="doWYCIJk3albXbdyMLMC-3">
          <mxGeometry x="-70" y="20" width="30" height="30" as="geometry" />
        </mxCell>
        <mxCell id="doWYCIJk3albXbdyMLMC-11" value="" style="endArrow=none;html=1;rounded=0;exitX=0.5;exitY=0;exitDx=0;exitDy=0;entryX=0.5;entryY=1;entryDx=0;entryDy=0;" edge="1" parent="doWYCIJk3albXbdyMLMC-3" target="doWYCIJk3albXbdyMLMC-7">
          <mxGeometry width="50" height="50" relative="1" as="geometry">
            <mxPoint x="30" y="100.00000000000045" as="sourcePoint" />
            <mxPoint x="40" y="10" as="targetPoint" />
          </mxGeometry>
        </mxCell>
        <mxCell id="doWYCIJk3albXbdyMLMC-40" value="rst" style="text;html=1;align=center;verticalAlign=middle;resizable=0;points=[];autosize=1;strokeColor=none;fillColor=none;" vertex="1" parent="doWYCIJk3albXbdyMLMC-3">
          <mxGeometry x="10" y="105" width="40" height="30" as="geometry" />
        </mxCell>
        <mxCell id="doWYCIJk3albXbdyMLMC-42" style="edgeStyle=orthogonalEdgeStyle;rounded=0;orthogonalLoop=1;jettySize=auto;html=1;exitX=1;exitY=0.25;exitDx=0;exitDy=0;entryX=0.5;entryY=0;entryDx=0;entryDy=0;" edge="1" parent="1" source="_48ezdWUlMI7r6iwSk9w-3" target="_48ezdWUlMI7r6iwSk9w-26">
          <mxGeometry relative="1" as="geometry">
            <Array as="points">
              <mxPoint x="740" y="138" />
              <mxPoint x="740" y="80" />
              <mxPoint x="430" y="80" />
            </Array>
          </mxGeometry>
        </mxCell>
        <mxCell id="doWYCIJk3albXbdyMLMC-43" style="edgeStyle=orthogonalEdgeStyle;rounded=0;orthogonalLoop=1;jettySize=auto;html=1;exitX=1;exitY=0.25;exitDx=0;exitDy=0;entryX=0.862;entryY=0;entryDx=0;entryDy=0;entryPerimeter=0;" edge="1" parent="1" source="_48ezdWUlMI7r6iwSk9w-3" target="doWYCIJk3albXbdyMLMC-2">
          <mxGeometry relative="1" as="geometry">
            <mxPoint x="380" y="80" as="targetPoint" />
            <Array as="points">
              <mxPoint x="740" y="138" />
              <mxPoint x="740" y="80" />
              <mxPoint x="270" y="80" />
            </Array>
          </mxGeometry>
        </mxCell>
        <mxCell id="doWYCIJk3albXbdyMLMC-44" style="edgeStyle=orthogonalEdgeStyle;rounded=0;orthogonalLoop=1;jettySize=auto;html=1;exitX=1;exitY=0.25;exitDx=0;exitDy=0;entryX=0.5;entryY=0;entryDx=0;entryDy=0;" edge="1" parent="1" source="_48ezdWUlMI7r6iwSk9w-29" target="doWYCIJk3albXbdyMLMC-2">
          <mxGeometry relative="1" as="geometry">
            <mxPoint x="780" y="320" as="targetPoint" />
            <Array as="points">
              <mxPoint x="760" y="418" />
              <mxPoint x="760" y="60" />
              <mxPoint x="165" y="60" />
            </Array>
          </mxGeometry>
        </mxCell>
        <mxCell id="doWYCIJk3albXbdyMLMC-45" value="&lt;div style=&quot;&quot;&gt;&lt;span style=&quot;background-color: initial;&quot;&gt;if (pushed_3)&lt;/span&gt;&lt;/div&gt;&lt;div style=&quot;&quot;&gt;&lt;span style=&quot;background-color: initial;&quot;&gt;&lt;span style=&quot;&quot;&gt;	&lt;/span&gt;&lt;span style=&quot;white-space: pre;&quot;&gt;	&lt;/span&gt;case (mode)&lt;/span&gt;&lt;/div&gt;&lt;div style=&quot;&quot;&gt;&lt;span style=&quot;background-color: initial;&quot;&gt;&lt;span style=&quot;&quot;&gt;	&lt;/span&gt;&lt;span style=&quot;&quot;&gt;	&lt;/span&gt;&lt;span style=&quot;white-space: pre;&quot;&gt;	&lt;span style=&quot;white-space: pre;&quot;&gt;	&lt;/span&gt;&lt;/span&gt;IDLE: next_mode = EDIT;&lt;/span&gt;&lt;/div&gt;&lt;div style=&quot;&quot;&gt;&lt;span style=&quot;background-color: initial;&quot;&gt;&lt;span style=&quot;white-space: pre;&quot;&gt;	&lt;/span&gt;&lt;span style=&quot;white-space: pre;&quot;&gt;	&lt;/span&gt;EDIT: next_mode = DIFF;&lt;br&gt;&lt;/span&gt;&lt;/div&gt;&lt;div style=&quot;&quot;&gt;&lt;span style=&quot;background-color: initial;&quot;&gt;&lt;span style=&quot;white-space: pre;&quot;&gt;	&lt;/span&gt;&lt;span style=&quot;white-space: pre;&quot;&gt;	&lt;/span&gt;DIFF: next_mode = RUN;&lt;br&gt;&lt;/span&gt;&lt;/div&gt;&lt;div style=&quot;&quot;&gt;&lt;span style=&quot;background-color: initial;&quot;&gt;&lt;span style=&quot;white-space: pre;&quot;&gt;	&lt;span style=&quot;white-space: pre;&quot;&gt;	&lt;/span&gt;R&lt;/span&gt;UN: next_mode = PAUSE;&lt;br&gt;&lt;/span&gt;&lt;/div&gt;&lt;div style=&quot;&quot;&gt;&lt;span style=&quot;background-color: initial;&quot;&gt;&lt;span style=&quot;white-space: pre;&quot;&gt;	&lt;/span&gt;&lt;span style=&quot;white-space: pre;&quot;&gt;	&lt;/span&gt;PAUSE: next_mode = RUN;&lt;br&gt;&lt;/span&gt;&lt;/div&gt;&lt;div style=&quot;&quot;&gt;&lt;span style=&quot;white-space: pre;&quot;&gt;	&lt;/span&gt;&lt;span style=&quot;white-space: pre;&quot;&gt;	&lt;/span&gt;//FINISH set seperately&lt;br&gt;&lt;/div&gt;&lt;div style=&quot;&quot;&gt;&lt;span style=&quot;background-color: initial;&quot;&gt;&lt;span style=&quot;white-space: pre;&quot;&gt;	&lt;/span&gt;&lt;span style=&quot;white-space: pre;&quot;&gt;	&lt;/span&gt;FINISH: next_mode = IDLE;&lt;br&gt;&lt;/span&gt;&lt;/div&gt;&lt;div style=&quot;&quot;&gt;&lt;span style=&quot;background-color: initial;&quot;&gt;&lt;span style=&quot;white-space: pre;&quot;&gt;	&lt;/span&gt;endcase&lt;br&gt;&lt;/span&gt;&lt;/div&gt;&lt;div style=&quot;&quot;&gt;else&lt;/div&gt;&lt;div style=&quot;&quot;&gt;&lt;span style=&quot;white-space: pre;&quot;&gt;	&lt;/span&gt;next_mode = (note1 == 0 &amp;amp;&amp;amp; note2 == 0) ? &lt;span style=&quot;white-space: pre;&quot;&gt;	&lt;/span&gt;&lt;span style=&quot;white-space: pre;&quot;&gt;	&lt;/span&gt;&lt;span style=&quot;white-space: pre;&quot;&gt;	&lt;/span&gt;FINISH : mode;&lt;br&gt;&lt;/div&gt;&lt;div style=&quot;&quot;&gt;&lt;br&gt;&lt;/div&gt;&lt;div style=&quot;&quot;&gt;&lt;span style=&quot;background-color: initial;&quot;&gt;&amp;nbsp;&lt;br&gt;&lt;/span&gt;&lt;/div&gt;" style="rounded=0;whiteSpace=wrap;html=1;align=left;" vertex="1" parent="1">
          <mxGeometry x="10" y="-270" width="290" height="250" as="geometry" />
        </mxCell>
        <mxCell id="doWYCIJk3albXbdyMLMC-55" style="edgeStyle=orthogonalEdgeStyle;rounded=0;orthogonalLoop=1;jettySize=auto;html=1;exitX=1;exitY=0.25;exitDx=0;exitDy=0;entryX=0;entryY=0.351;entryDx=0;entryDy=0;entryPerimeter=0;" edge="1" parent="1" source="doWYCIJk3albXbdyMLMC-46" target="doWYCIJk3albXbdyMLMC-45">
          <mxGeometry relative="1" as="geometry" />
        </mxCell>
        <mxCell id="doWYCIJk3albXbdyMLMC-46" value="FF" style="rounded=0;whiteSpace=wrap;html=1;" vertex="1" parent="1">
          <mxGeometry x="-150" y="-220" width="100" height="150" as="geometry" />
        </mxCell>
        <mxCell id="doWYCIJk3albXbdyMLMC-47" value="" style="triangle;whiteSpace=wrap;html=1;" vertex="1" parent="1">
          <mxGeometry x="-150" y="-120" width="20" height="30" as="geometry" />
        </mxCell>
        <mxCell id="doWYCIJk3albXbdyMLMC-48" value="" style="ellipse;whiteSpace=wrap;html=1;aspect=fixed;" vertex="1" parent="1">
          <mxGeometry x="-110" y="-70" width="20" height="20" as="geometry" />
        </mxCell>
        <mxCell id="doWYCIJk3albXbdyMLMC-49" value="" style="endArrow=none;html=1;rounded=0;exitX=0;exitY=0.5;exitDx=0;exitDy=0;" edge="1" parent="1" source="doWYCIJk3albXbdyMLMC-47">
          <mxGeometry width="50" height="50" relative="1" as="geometry">
            <mxPoint x="-140" y="-80" as="sourcePoint" />
            <mxPoint x="-170" y="-105" as="targetPoint" />
          </mxGeometry>
        </mxCell>
        <mxCell id="doWYCIJk3albXbdyMLMC-50" value="clk" style="text;html=1;strokeColor=none;fillColor=none;align=center;verticalAlign=middle;whiteSpace=wrap;rounded=0;" vertex="1" parent="1">
          <mxGeometry x="-200" y="-120" width="30" height="30" as="geometry" />
        </mxCell>
        <mxCell id="doWYCIJk3albXbdyMLMC-51" value="rst" style="text;html=1;strokeColor=none;fillColor=none;align=center;verticalAlign=middle;whiteSpace=wrap;rounded=0;" vertex="1" parent="1">
          <mxGeometry x="-115" y="-40" width="30" height="30" as="geometry" />
        </mxCell>
        <mxCell id="doWYCIJk3albXbdyMLMC-52" value="" style="endArrow=none;html=1;rounded=0;exitX=0.5;exitY=0;exitDx=0;exitDy=0;entryX=0.5;entryY=1;entryDx=0;entryDy=0;" edge="1" parent="1" target="doWYCIJk3albXbdyMLMC-48">
          <mxGeometry width="50" height="50" relative="1" as="geometry">
            <mxPoint x="-100" y="-40" as="sourcePoint" />
            <mxPoint x="-90" y="-130" as="targetPoint" />
          </mxGeometry>
        </mxCell>
        <mxCell id="doWYCIJk3albXbdyMLMC-53" style="edgeStyle=orthogonalEdgeStyle;rounded=0;orthogonalLoop=1;jettySize=auto;html=1;" edge="1" parent="1" source="doWYCIJk3albXbdyMLMC-54">
          <mxGeometry relative="1" as="geometry">
            <mxPoint x="-150" y="-185" as="targetPoint" />
          </mxGeometry>
        </mxCell>
        <mxCell id="doWYCIJk3albXbdyMLMC-54" value="button_1" style="text;html=1;strokeColor=default;fillColor=none;align=center;verticalAlign=middle;whiteSpace=wrap;rounded=1;" vertex="1" parent="1">
          <mxGeometry x="-270" y="-200" width="80" height="30" as="geometry" />
        </mxCell>
      </root>
    </mxGraphModel>
  </diagram>
  <diagram id="X-Xjq9smq5io7OeBiHxJ" name="Counter RTL">
    <mxGraphModel dx="2434" dy="689" grid="1" gridSize="10" guides="1" tooltips="1" connect="1" arrows="1" fold="1" page="1" pageScale="1" pageWidth="850" pageHeight="1100" math="0" shadow="0">
      <root>
        <mxCell id="FWbd-9dNyO0599VBVfRR-0" />
        <mxCell id="FWbd-9dNyO0599VBVfRR-1" parent="FWbd-9dNyO0599VBVfRR-0" />
        <mxCell id="FWbd-9dNyO0599VBVfRR-5" value="" style="group" vertex="1" connectable="0" parent="FWbd-9dNyO0599VBVfRR-1">
          <mxGeometry x="510" y="230" width="120" height="200" as="geometry" />
        </mxCell>
        <mxCell id="FWbd-9dNyO0599VBVfRR-2" value="(31 FF)" style="rounded=0;whiteSpace=wrap;html=1;" vertex="1" parent="FWbd-9dNyO0599VBVfRR-5">
          <mxGeometry width="120" height="170" as="geometry" />
        </mxCell>
        <mxCell id="FWbd-9dNyO0599VBVfRR-3" value="" style="ellipse;whiteSpace=wrap;html=1;aspect=fixed;" vertex="1" parent="FWbd-9dNyO0599VBVfRR-5">
          <mxGeometry x="45" y="170" width="30" height="30" as="geometry" />
        </mxCell>
        <mxCell id="FWbd-9dNyO0599VBVfRR-4" value="" style="triangle;whiteSpace=wrap;html=1;" vertex="1" parent="FWbd-9dNyO0599VBVfRR-5">
          <mxGeometry y="130" width="20" height="30" as="geometry" />
        </mxCell>
        <mxCell id="bEGGZWXHpNRlRK0JqRUQ-6" style="edgeStyle=orthogonalEdgeStyle;rounded=0;orthogonalLoop=1;jettySize=auto;html=1;entryX=0;entryY=0.5;entryDx=0;entryDy=0;" edge="1" parent="FWbd-9dNyO0599VBVfRR-1" source="UeqmpU1jAAx1yep2V0kX-0" target="FWbd-9dNyO0599VBVfRR-2">
          <mxGeometry relative="1" as="geometry" />
        </mxCell>
        <mxCell id="UeqmpU1jAAx1yep2V0kX-0" value="&lt;div style=&quot;text-align: left&quot;&gt;&lt;div&gt;if (key_clk)&lt;br&gt;&lt;/div&gt;&lt;div&gt;&amp;nbsp;&amp;nbsp;&amp;nbsp;&amp;nbsp;case ({pushed_1, key_1[31]})&lt;/div&gt;&lt;div&gt;&amp;nbsp;&amp;nbsp;&amp;nbsp;&amp;nbsp;&amp;nbsp;&amp;nbsp;&amp;nbsp;&amp;nbsp;2&#39;b11: next_score = score + 3&lt;br&gt;&lt;/div&gt;&lt;div&gt;&lt;span&gt; &lt;/span&gt;&lt;span&gt; &lt;/span&gt;next_hit = hit + 1;&lt;br&gt;&lt;/div&gt;&lt;div&gt;&amp;nbsp;&amp;nbsp;&amp;nbsp;&amp;nbsp;&amp;nbsp;&amp;nbsp;&amp;nbsp;&amp;nbsp;2&#39;b01: next_score = score - 1;&lt;br&gt;&lt;/div&gt;&lt;div&gt;&lt;span&gt; &lt;/span&gt;&lt;span&gt; &lt;/span&gt;next_missed = miss + 1;&lt;br&gt;&lt;/div&gt;&lt;div&gt;&lt;span&gt; &lt;/span&gt;&lt;span&gt; &lt;/span&gt;if score &amp;lt; 0: next_score = 0l&lt;br&gt;&lt;/div&gt;&lt;div&gt;&amp;nbsp;&amp;nbsp;&amp;nbsp;&amp;nbsp;&amp;nbsp;&amp;nbsp;&amp;nbsp;&amp;nbsp;default: next_score = score;&lt;br&gt;&lt;/div&gt;&lt;div&gt;&amp;nbsp;&amp;nbsp;&amp;nbsp;&amp;nbsp;endcase&lt;br&gt;&lt;/div&gt;&lt;div&gt;&lt;br&gt;&lt;/div&gt;&lt;div&gt;&lt;div&gt;&amp;nbsp; &amp;nbsp; case ({pushed_2, key_2[31]})&lt;/div&gt;&lt;div&gt;&amp;nbsp;&amp;nbsp;&amp;nbsp;&amp;nbsp;&amp;nbsp;&amp;nbsp;&amp;nbsp;&amp;nbsp;2&#39;b11: next_score = score + 3;&lt;br&gt;&lt;/div&gt;&lt;div&gt;&lt;span&gt; &lt;/span&gt;&lt;span&gt; &lt;/span&gt;next_hit = hit + 1;&lt;/div&gt;&lt;div&gt;&amp;nbsp;&amp;nbsp;&amp;nbsp;&amp;nbsp;&amp;nbsp;&amp;nbsp;&amp;nbsp;&amp;nbsp;2&#39;b01: next_score = score - 1;&lt;br&gt;&lt;/div&gt;&lt;div&gt;&lt;span&gt; &lt;/span&gt;&lt;span&gt; &lt;/span&gt;next_missed = miss + 1;&lt;br&gt;&lt;/div&gt;&lt;div&gt;&lt;span&gt; &lt;/span&gt;&lt;span&gt; &lt;/span&gt;if score &amp;lt; 0: next_score = 0;&lt;br&gt;&lt;/div&gt;&lt;div&gt;&amp;nbsp;&amp;nbsp;&amp;nbsp;&amp;nbsp;&amp;nbsp;&amp;nbsp;&amp;nbsp;&amp;nbsp;default: next_score = score;&lt;br&gt;&lt;/div&gt;&lt;div&gt;&amp;nbsp;&amp;nbsp;&amp;nbsp;&amp;nbsp;endcase&lt;/div&gt;&lt;/div&gt;&lt;div&gt;else&lt;/div&gt;&lt;div&gt;&amp;nbsp;&amp;nbsp;&amp;nbsp;&amp;nbsp;next_score = score;&lt;/div&gt;&lt;/div&gt;" style="rounded=0;whiteSpace=wrap;html=1;" vertex="1" parent="FWbd-9dNyO0599VBVfRR-1">
          <mxGeometry x="60" y="165" width="340" height="350" as="geometry" />
        </mxCell>
        <mxCell id="KMgPXs5XocPiiC1jgJbk-2" style="edgeStyle=orthogonalEdgeStyle;rounded=0;orthogonalLoop=1;jettySize=auto;html=1;entryX=0;entryY=0.197;entryDx=0;entryDy=0;entryPerimeter=0;" edge="1" parent="FWbd-9dNyO0599VBVfRR-1" source="KMgPXs5XocPiiC1jgJbk-0" target="UeqmpU1jAAx1yep2V0kX-0">
          <mxGeometry relative="1" as="geometry" />
        </mxCell>
        <mxCell id="KMgPXs5XocPiiC1jgJbk-0" value="pushed_1" style="rounded=1;whiteSpace=wrap;html=1;" vertex="1" parent="FWbd-9dNyO0599VBVfRR-1">
          <mxGeometry x="-100" y="210" width="90" height="40" as="geometry" />
        </mxCell>
        <mxCell id="KMgPXs5XocPiiC1jgJbk-3" style="edgeStyle=orthogonalEdgeStyle;rounded=0;orthogonalLoop=1;jettySize=auto;html=1;entryX=0.004;entryY=0.729;entryDx=0;entryDy=0;entryPerimeter=0;" edge="1" parent="FWbd-9dNyO0599VBVfRR-1" source="KMgPXs5XocPiiC1jgJbk-1" target="UeqmpU1jAAx1yep2V0kX-0">
          <mxGeometry relative="1" as="geometry" />
        </mxCell>
        <mxCell id="KMgPXs5XocPiiC1jgJbk-1" value="pushed_2" style="rounded=1;whiteSpace=wrap;html=1;" vertex="1" parent="FWbd-9dNyO0599VBVfRR-1">
          <mxGeometry x="-100" y="430" width="90" height="40" as="geometry" />
        </mxCell>
        <mxCell id="bEGGZWXHpNRlRK0JqRUQ-3" style="edgeStyle=orthogonalEdgeStyle;rounded=0;orthogonalLoop=1;jettySize=auto;html=1;exitX=0.5;exitY=1;exitDx=0;exitDy=0;entryX=0.25;entryY=0;entryDx=0;entryDy=0;" edge="1" parent="FWbd-9dNyO0599VBVfRR-1" source="bEGGZWXHpNRlRK0JqRUQ-0" target="UeqmpU1jAAx1yep2V0kX-0">
          <mxGeometry relative="1" as="geometry" />
        </mxCell>
        <mxCell id="bEGGZWXHpNRlRK0JqRUQ-0" value="key_clk" style="rounded=1;whiteSpace=wrap;html=1;" vertex="1" parent="FWbd-9dNyO0599VBVfRR-1">
          <mxGeometry x="60" y="40" width="100" height="30" as="geometry" />
        </mxCell>
        <mxCell id="bEGGZWXHpNRlRK0JqRUQ-4" style="edgeStyle=orthogonalEdgeStyle;rounded=0;orthogonalLoop=1;jettySize=auto;html=1;exitX=0.5;exitY=1;exitDx=0;exitDy=0;" edge="1" parent="FWbd-9dNyO0599VBVfRR-1" source="bEGGZWXHpNRlRK0JqRUQ-1" target="UeqmpU1jAAx1yep2V0kX-0">
          <mxGeometry relative="1" as="geometry" />
        </mxCell>
        <mxCell id="bEGGZWXHpNRlRK0JqRUQ-1" value="key_1" style="rounded=1;whiteSpace=wrap;html=1;" vertex="1" parent="FWbd-9dNyO0599VBVfRR-1">
          <mxGeometry x="230" y="40" width="100" height="30" as="geometry" />
        </mxCell>
        <mxCell id="bEGGZWXHpNRlRK0JqRUQ-5" style="edgeStyle=orthogonalEdgeStyle;rounded=0;orthogonalLoop=1;jettySize=auto;html=1;entryX=0.75;entryY=0;entryDx=0;entryDy=0;" edge="1" parent="FWbd-9dNyO0599VBVfRR-1" source="bEGGZWXHpNRlRK0JqRUQ-2" target="UeqmpU1jAAx1yep2V0kX-0">
          <mxGeometry relative="1" as="geometry" />
        </mxCell>
        <mxCell id="bEGGZWXHpNRlRK0JqRUQ-2" value="key_2" style="rounded=1;whiteSpace=wrap;html=1;" vertex="1" parent="FWbd-9dNyO0599VBVfRR-1">
          <mxGeometry x="375" y="40" width="100" height="30" as="geometry" />
        </mxCell>
        <mxCell id="bEGGZWXHpNRlRK0JqRUQ-7" value="next_score" style="rounded=1;whiteSpace=wrap;html=1;" vertex="1" parent="FWbd-9dNyO0599VBVfRR-1">
          <mxGeometry x="425" y="280" width="70" height="20" as="geometry" />
        </mxCell>
        <mxCell id="bEGGZWXHpNRlRK0JqRUQ-10" style="edgeStyle=orthogonalEdgeStyle;rounded=0;orthogonalLoop=1;jettySize=auto;html=1;exitX=0.5;exitY=0;exitDx=0;exitDy=0;entryX=0.884;entryY=0.003;entryDx=0;entryDy=0;entryPerimeter=0;" edge="1" parent="FWbd-9dNyO0599VBVfRR-1" source="bEGGZWXHpNRlRK0JqRUQ-8" target="UeqmpU1jAAx1yep2V0kX-0">
          <mxGeometry relative="1" as="geometry">
            <Array as="points">
              <mxPoint x="730" y="130" />
              <mxPoint x="361" y="130" />
            </Array>
          </mxGeometry>
        </mxCell>
        <mxCell id="bEGGZWXHpNRlRK0JqRUQ-8" value="score" style="rounded=1;whiteSpace=wrap;html=1;" vertex="1" parent="FWbd-9dNyO0599VBVfRR-1">
          <mxGeometry x="700" y="290" width="60" height="20" as="geometry" />
        </mxCell>
        <mxCell id="bEGGZWXHpNRlRK0JqRUQ-9" style="edgeStyle=orthogonalEdgeStyle;rounded=0;orthogonalLoop=1;jettySize=auto;html=1;exitX=1;exitY=0.5;exitDx=0;exitDy=0;entryX=0;entryY=0.5;entryDx=0;entryDy=0;" edge="1" parent="FWbd-9dNyO0599VBVfRR-1" source="FWbd-9dNyO0599VBVfRR-2" target="bEGGZWXHpNRlRK0JqRUQ-8">
          <mxGeometry relative="1" as="geometry" />
        </mxCell>
        <mxCell id="VF9tHyQH1aQnh7QmdF_1-0" value="clk" style="text;html=1;align=center;verticalAlign=middle;resizable=0;points=[];autosize=1;strokeColor=none;fillColor=none;rounded=1;" vertex="1" parent="FWbd-9dNyO0599VBVfRR-1">
          <mxGeometry x="475" y="360" width="30" height="20" as="geometry" />
        </mxCell>
        <mxCell id="VF9tHyQH1aQnh7QmdF_1-1" value="rst" style="text;html=1;align=center;verticalAlign=middle;resizable=0;points=[];autosize=1;strokeColor=none;fillColor=none;" vertex="1" parent="FWbd-9dNyO0599VBVfRR-1">
          <mxGeometry x="555" y="440" width="30" height="20" as="geometry" />
        </mxCell>
      </root>
    </mxGraphModel>
  </diagram>
</mxfile>
